<?xml version="1.0" encoding="UTF-8" standalone="no"?>
<!DOCTYPE svg  PUBLIC '-//W3C//DTD SVG 1.1//EN'  'http://www.w3.org/Graphics/SVG/1.1/DTD/svg11.dtd'>
<svg xmlns="http://www.w3.org/2000/svg">
<defs>
<font id="Exo2-Black" horiz-adv-x="590">
<font-face underline-position="-50" font-weight="900" descent="-200" panose-1="0 0 10 0 0 0 0 0 0 0" units-per-em="1000" unicode-range="U+0020-04C0" bbox="-62 -280 1034 963" x-height="500" underline-thickness="50" font-family="Exo2" ascent="800" cap-height="690"/>
<missing-glyph horiz-adv-x="1000"/>
<glyph glyph-name=".notdef" horiz-adv-x="1000"/>
<glyph glyph-name=".null" horiz-adv-x="0"/>
<glyph glyph-name="nonmarkingreturn" horiz-adv-x="1000"/>
<glyph glyph-name="space" horiz-adv-x="210" unicode=" "/>
<glyph glyph-name="exclam" horiz-adv-x="329" unicode="!" d="M141 185h47q41 0 56.5 -15.5t15.5 -56.5v-41q0 -41 -15.5 -56.5t-56.5 -15.5h-47q-41 0 -56.5 15.5t-15.5 56.5v41q0 41 15.5 56.5t56.5 15.5zM268 461l-22 -234h-164l-22 234v234h208v-234z"/>
<glyph glyph-name="quotedbl" horiz-adv-x="393" unicode='&quot;' d="M346 462h-120l-12 228h144zM167 462h-120l-12 228h144z"/>
<glyph glyph-name="numbersign" horiz-adv-x="740" unicode="#" d="M429 404h-96l-17 -100h96zM584 404l-17 -100h110l-24 -122h-107l-32 -182h-155l32 182h-96l-32 -182h-155l32 182h-118l24 122h115l17 100h-114l24 122h111l29 164h155l-29 -164h96l29 164h155l-29 -164h114l-24 -122h-111z"/>
<glyph glyph-name="dollar" horiz-adv-x="595" unicode="$" d="M303 459l119 -52q82 -37 116 -85t34 -125q0 -110 -50.5 -157t-180.5 -53l-10 -97h-155l11 102q-79 9 -150 28l13 152q188 -5 244 -5q39 0 52 5t13 19t-9.5 23t-37.5 19l-131 60q-81 38 -115 85t-34 123q0 110 54.5 154.5t190.5 48.5l11 85h156l-12 -92q66 -8 121 -28 l-13 -139q-116 2 -237 2q-36 0 -48 -5t-12 -21q0 -14 12 -24t48 -23z"/>
<glyph glyph-name="percent" horiz-adv-x="921" unicode="%" d="M717 289q-19 0 -23.5 -14.5t-4.5 -82.5q0 -67 4.5 -82t23.5 -15q20 0 25 15t5 82t-5 82t-25 15zM717 398q103 0 143 -44t40 -162t-40 -162t-143 -44q-102 0 -141.5 44t-39.5 162t39.5 162t141.5 44zM203 595q-19 0 -23.5 -15t-4.5 -82q0 -68 4.5 -82.5t23.5 -14.5 q20 0 25 15t5 82t-5 82t-25 15zM333 0h-126l380 690h126zM203 704q103 0 143 -44t40 -162t-40 -162t-143 -44q-102 0 -141.5 44t-39.5 162t39.5 162t141.5 44z"/>
<glyph glyph-name="ampersand" horiz-adv-x="761" unicode="&amp;" d="M439 288h-122q-34 0 -43.5 -12.5t-9.5 -54.5q0 -45 9 -58t39 -13h5q63 2 122 15v123zM719 146l23 -134q-55 -26 -150 -26q-96 0 -133 62q-39 -33 -85.5 -47.5t-122.5 -14.5q-116 0 -166 43.5t-50 146.5q0 82 32 127t105 52v6q-62 6 -88.5 44t-26.5 115q0 49 10 81.5 t28.5 53t54.5 31.5t77.5 14.5t107.5 3.5q101 0 166 -14l-25 -140q-123 3 -147 3q-33 0 -43.5 -12.5t-10.5 -54.5q0 -40 10.5 -53.5t43.5 -13.5h118l11 89h178v-89h87v-131h-87v-106q0 -20 7.5 -28t25.5 -8h50z"/>
<glyph glyph-name="quotesingle" horiz-adv-x="214" unicode="&apos;" d="M167 462h-120l-12 228h144z"/>
<glyph glyph-name="parenleft" horiz-adv-x="372" unicode="(" d="M342 790l24 -88q-74 -30 -106 -128.5t-32 -260.5q0 -329 138 -390l-24 -88q-164 43 -240.5 158.5t-76.5 318.5q0 204 76.5 320t240.5 158z"/>
<glyph glyph-name="parenright" horiz-adv-x="372" unicode=")" d="M6 702l24 88q164 -42 240.5 -158t76.5 -320q0 -203 -76.5 -318.5t-240.5 -158.5l-24 88q138 61 138 390q0 162 -32 260.5t-106 128.5z"/>
<glyph glyph-name="asterisk" horiz-adv-x="456" unicode="*" d="M170 571v-49l-25 -30l-122 24l34 106zM433 516l-120 -24l-25 30l-2 49l113 52zM268 517l113 -129l-89 -66l-64 119l-63 -119l-90 66l115 128l-18 176h112z"/>
<glyph glyph-name="plus" horiz-adv-x="523" unicode="+" d="M497 226h-159v-158h-153v158h-159v155h159v158h153v-158h159v-155z"/>
<glyph glyph-name="comma" horiz-adv-x="255" unicode="," d="M106 185h41q40 0 55.5 -15.5t16.5 -56.5v-64q0 -71 -16 -117t-51 -94l-78 25q17 51 19 137q-59 0 -61 64l3 49q1 41 16 56.5t55 15.5z"/>
<glyph glyph-name="hyphen" horiz-adv-x="379" unicode="-" d="M335 196h-291v122h291v-122z"/>
<glyph glyph-name="period" horiz-adv-x="259" unicode="." d="M106 185h47q41 0 56.5 -15.5t15.5 -56.5v-41q0 -41 -15.5 -56.5t-56.5 -15.5h-47q-41 0 -56.5 15.5t-15.5 56.5v41q0 41 15.5 56.5t56.5 15.5z"/>
<glyph glyph-name="slash" horiz-adv-x="588" unicode="/" d="M180 -79h-165l393 769h165z"/>
<glyph glyph-name="zero" horiz-adv-x="659" unicode="0" d="M328 543q-34 0 -49 -12.5t-22.5 -54t-7.5 -131.5t7.5 -131.5t22.5 -54t49 -12.5q36 0 51.5 12.5t23 54t7.5 131.5t-7.5 131.5t-23 54t-51.5 12.5zM329 704q166 0 231 -77.5t65 -281.5t-65 -281.5t-231 -77.5q-165 0 -230 77.5t-65 281.5t65 281.5t230 77.5z"/>
<glyph glyph-name="one" horiz-adv-x="466" unicode="1" d="M394 0h-216v432q0 55 8 89l-159 -31l-25 133l176 67h216v-690z"/>
<glyph glyph-name="two" horiz-adv-x="600" unicode="2" d="M46 521l-7 159q120 22 258 22q126 0 190.5 -37.5t64.5 -134.5q0 -57 -19.5 -97.5t-85.5 -106.5l-163 -154q34 10 77 10h15h192v-182h-535v108q0 52 30 87l144 141q123 123 123 166q0 14 -12.5 17.5t-48.5 3.5q-125 0 -223 -2z"/>
<glyph glyph-name="three" horiz-adv-x="578" unicode="3" d="M49 539l-6 146q118 19 242 19q134 0 187 -35t53 -126q0 -82 -24 -123.5t-90 -50.5v-4q73 -11 102 -50.5t30 -122.5v-7q0 -105 -58 -152t-199 -47q-118 0 -258 19l6 152q116 -5 192 -5q64 0 83.5 12t19.5 58q0 41 -15 55t-56 14h-6l-133 -2v132h133q46 0 58.5 13.5 t12.5 48.5q0 34 -15.5 45t-61.5 11h-197z"/>
<glyph glyph-name="four" horiz-adv-x="659" unicode="4" d="M642 278v-118l-77 -20h-2v-140h-197v140h-277q-43 0 -61.5 25.5t-18.5 47.5q0 14 6 30l167 447h200l-140 -387q-4 -11 1 -18t16 -7h107v170l35 106h162v-276h79z"/>
<glyph glyph-name="five" horiz-adv-x="568" unicode="5" d="M513 535h-284l-6 -72l128 -17q190 -23 190 -231q0 -227 -261 -227q-105 0 -256 18l18 161q136 -6 181 -6q58 0 79 13t24 49v8q0 28 -19.5 42t-72.5 18l-126 16q-27 4 -43.5 23t-15.5 45l19 315h452z"/>
<glyph glyph-name="six" horiz-adv-x="608" unicode="6" d="M315 139q45 0 55.5 19t10.5 83q0 47 -12.5 60t-56.5 13q-35 0 -70 -17q1 -106 13 -132t60 -26zM528 551h-181q-61 0 -81 -24t-23 -105q47 34 134 34q118 0 162 -48t44 -162q0 -72 -11.5 -118t-41 -79t-82.5 -47t-135 -14q-81 0 -131.5 14.5t-85 54.5t-48 107t-13.5 175 q0 78 8.5 136t27 98t42.5 65.5t61 39.5t77 19t96 5q114 0 189 -22z"/>
<glyph glyph-name="seven" horiz-adv-x="543" unicode="7" d="M14 690h443q44 0 63 -25t19 -47q0 -14 -5 -29l-207 -589h-211l159 438q18 51 38 79h-290z"/>
<glyph glyph-name="eight" horiz-adv-x="639" unicode="8" d="M322 292q-50 0 -66 -16t-16 -64q0 -46 15.5 -60.5t65.5 -14.5q48 0 63 14.5t15 60.5q0 49 -15 64.5t-62 15.5zM321 564q-44 0 -58 -14t-14 -61q0 -40 14.5 -52.5t59.5 -12.5q43 0 55.5 12t12.5 53q0 47 -13.5 61t-56.5 14zM163 356v4q-54 6 -81 52.5t-27 105.5 q0 69 20.5 107t78.5 58.5t166 20.5q109 0 167 -20.5t78 -58.5t20 -107q0 -59 -27 -105.5t-81 -52.5v-4q126 -11 126 -184q0 -106 -57.5 -146t-225.5 -41h-8q-159 0 -217 40.5t-58 146.5q0 173 126 184z"/>
<glyph glyph-name="nine" horiz-adv-x="608" unicode="9" d="M230 449q0 -47 12.5 -60t53.5 -13q34 0 69 18q-1 105 -12.5 131t-58.5 26q-43 0 -53.5 -19.5t-10.5 -82.5zM55 10l9 130q65 -1 196 -1q59 0 79.5 26.5t24.5 102.5q-49 -34 -134 -34q-112 0 -157.5 53.5t-45.5 156.5q0 142 56.5 200t212.5 58q87 0 138 -14t83.5 -55.5 t43.5 -106t11 -175.5q0 -95 -11 -158.5t-32.5 -104.5t-61 -62.5t-87 -29.5t-120.5 -8q-120 0 -205 22z"/>
<glyph glyph-name="colon" horiz-adv-x="277" unicode=":" d="M107 186h47q41 0 56.5 -15.5t15.5 -56.5v-41q0 -41 -15.5 -56.5t-56.5 -15.5h-47q-41 0 -56.5 15.5t-15.5 56.5v41q0 41 15.5 56.5t56.5 15.5zM107 462h47q41 0 56.5 -15.5t15.5 -56.5v-41q0 -41 -15.5 -56.5t-56.5 -15.5h-47q-41 0 -56.5 15.5t-15.5 56.5v41 q0 41 15.5 56.5t56.5 15.5z"/>
<glyph glyph-name="semicolon" horiz-adv-x="277" unicode=";" d="M116 185h41q40 0 55.5 -15.5t16.5 -56.5v-64q0 -71 -16 -117t-51 -94l-78 25q17 51 19 137q-59 0 -61 64l3 49q1 41 16 56.5t55 15.5zM116 462h47q41 0 56.5 -15.5t15.5 -56.5v-41q0 -41 -15.5 -56.5t-56.5 -15.5h-47q-41 0 -56.5 15.5t-15.5 56.5v41q0 41 15.5 56.5 t56.5 15.5z"/>
<glyph glyph-name="less" horiz-adv-x="505" unicode="&lt;" d="M461 378l-259 -75l259 -75v-163l-435 158v161l435 157v-163z"/>
<glyph glyph-name="equal" horiz-adv-x="571" unicode="=" d="M526 121h-481v146h481v-146zM526 337h-481v146h481v-146z"/>
<glyph glyph-name="greater" horiz-adv-x="502" unicode="&gt;" d="M476 384v-161l-432 -158v163l256 75l-256 75v163z"/>
<glyph glyph-name="question" horiz-adv-x="536" unicode="?" d="M227 185h47q41 0 56.5 -15.5t15.5 -56.5v-41q0 -41 -15.5 -56.5t-56.5 -15.5h-47q-41 0 -56.5 15.5t-15.5 56.5v41q0 41 15.5 56.5t56.5 15.5zM29 546l-5 138q8 2 37.5 7.5t37.5 7t33.5 5.5t43.5 5t47.5 2t64.5 1q116 0 171.5 -38t55.5 -117q0 -40 -17 -73.5t-41.5 -59 t-50.5 -51.5t-47 -63.5t-26 -82.5h-164v17q0 48 15.5 95t38.5 76t44.5 56.5t24.5 41.5q4 19 -8.5 26t-47.5 7h-207z"/>
<glyph glyph-name="at" horiz-adv-x="801" unicode="@" d="M567 329l-69 -5q-34 -3 -34 -28v-14q0 -28 37 -28q32 0 66 21v54zM399 617h162q100 0 149 -43t49 -146v-290h-153l-16 63q-60 -76 -156 -76q-66 0 -110.5 34t-44.5 94v45q0 55 39.5 86.5t107.5 31.5h141v13q0 24 -11 34.5t-39 10.5h-118q-36 0 -51.5 -0.5t-38.5 -3.5 t-30.5 -7.5t-20 -15t-15.5 -23.5t-7.5 -36.5t-5 -50t-0.5 -67.5q0 -81 4 -119t30.5 -59.5t55 -23.5t106.5 -2h25h309v-128q-193 -17 -309 -17q-98 0 -159.5 4t-111.5 19.5t-74.5 36.5t-41.5 64t-21 93t-4 132t3.5 131.5t18 92.5t36.5 63.5t65.5 36t97 19.5t139.5 4z"/>
<glyph glyph-name="A" horiz-adv-x="683" unicode="A" d="M401 301l-34 148q-9 47 -12 79h-27q-6 -47 -12 -79l-34 -148h119zM436 149h-189l-35 -149h-221l179 634q7 25 27 40.5t46 15.5h197q26 0 46 -15.5t27 -40.5l179 -634h-221z"/>
<glyph glyph-name="B" horiz-adv-x="660" unicode="B" d="M264 139h80q45 0 59 15t14 62q0 48 -14 63t-60 15h-79v-155zM264 421h77q38 0 50 13t12 53t-12.5 52t-51.5 12h-75v-130zM484 361v-6q80 -7 114.5 -52t34.5 -131q0 -103 -57.5 -141.5t-192.5 -38.5q-219 0 -331 8v690q102 8 298 8q147 0 203.5 -37.5t56.5 -142.5 q0 -75 -29.5 -113t-96.5 -44z"/>
<glyph glyph-name="C" horiz-adv-x="605" unicode="C" d="M571 179l16 -158q-96 -33 -242 -33q-172 0 -242.5 80t-70.5 277t70.5 277t242.5 80q129 0 227 -27l-16 -158q-140 2 -211 2q-51 0 -68 -34.5t-17 -139.5t17 -139.5t68 -34.5q149 0 226 8z"/>
<glyph glyph-name="D" horiz-adv-x="701" unicode="D" d="M269 148l78 -1q56 0 74.5 39.5t18.5 158.5t-18.5 158.5t-74.5 39.5h-78v-395zM52 0v690q176 10 295 10q123 0 190.5 -30.5t99.5 -107t32 -217.5t-32 -217.5t-99.5 -107t-190.5 -30.5q-150 0 -295 10z"/>
<glyph glyph-name="E" horiz-adv-x="596" unicode="E" d="M558 162l10 -153q-100 -13 -359 -13q-71 0 -116.5 43.5t-45.5 113.5v384q0 70 45.5 113.5t116.5 43.5q259 0 359 -13l-10 -153h-253q-19 0 -30 -10t-11 -26v-67h258v-144h-258v-83q0 -16 11 -26t30 -10h253z"/>
<glyph glyph-name="F" horiz-adv-x="574" unicode="F" d="M551 528h-241q-20 0 -31.5 -10t-11.5 -26v-81h247v-144h-247v-267h-217v537q0 70 46 113.5t118 43.5q252 0 347 -14z"/>
<glyph glyph-name="G" horiz-adv-x="668" unicode="G" d="M631 397v-397h-160l-19 71q-28 -35 -77.5 -60t-113.5 -25q-121 0 -175 82.5t-54 276.5q0 198 73 278.5t252 80.5q144 0 245 -29l-16 -156q-152 2 -228 2q-58 0 -78 -35t-20 -141q0 -104 18 -139t70 -35q35 0 75 6v220h208z"/>
<glyph glyph-name="H" horiz-adv-x="714" unicode="H" d="M661 690v-690h-217v290h-174v-290h-217v690h217v-248h174v248h217z"/>
<glyph glyph-name="I" horiz-adv-x="321" unicode="I" d="M268 0h-215v690h215v-690z"/>
<glyph glyph-name="J" horiz-adv-x="404" unicode="J" d="M354 690v-563q0 -67 -49 -104t-134 -37q-39 0 -88.5 7t-72.5 19l23 136h47q59 0 59 35v507h215z"/>
<glyph glyph-name="K" horiz-adv-x="676" unicode="K" d="M298 288h-36q8 -35 8 -63v-225h-217v690h217v-174q0 -47 -10 -88h38l144 262h233l-159 -270q-25 -46 -61 -61v-4q15 -6 36.5 -26.5t32.5 -41.5l161 -287h-241z"/>
<glyph glyph-name="L" horiz-adv-x="557" unicode="L" d="M267 690v-482q0 -16 11.5 -26t30.5 -10h232l10 -162q-103 -14 -337 -14q-74 0 -119 43.5t-45 113.5v537h217z"/>
<glyph glyph-name="M" horiz-adv-x="952" unicode="M" d="M621 690h191q73 0 76 -75l24 -615h-195l-21 528h-15l-68 -352q-11 -66 -82 -66h-112q-71 0 -83 66l-69 352h-15l-17 -528h-195l24 615q3 75 76 75h187q70 0 82 -67l50 -274q5 -32 11 -103h9q0 3 4.5 43t7.5 60l47 274q12 67 83 67z"/>
<glyph glyph-name="N" horiz-adv-x="738" unicode="N" d="M687 690v-615q0 -75 -75 -75h-83q-31 0 -47.5 14t-36.5 49l-150 237q-25 45 -46 118h-7q10 -70 10 -126v-292h-200v615q0 75 75 75h83q31 0 47 -14t37 -49l144 -226q27 -48 53 -118h7q-9 74 -10 125v282h199z"/>
<glyph glyph-name="O" horiz-adv-x="707" unicode="O" d="M353 543q-56 0 -74.5 -39.5t-18.5 -158.5t18.5 -158.5t74.5 -39.5t74.5 39.5t18.5 158.5t-18.5 158.5t-74.5 39.5zM353 704q123 0 190.5 -30.5t99.5 -108t32 -220.5t-32 -220.5t-99.5 -108t-190.5 -30.5q-122 0 -189.5 30.5t-99.5 108t-32 220.5t32 220.5t99.5 108 t189.5 30.5z"/>
<glyph glyph-name="P" horiz-adv-x="646" unicode="P" d="M269 385h70q44 0 59 16t15 64q0 49 -15 65.5t-59 16.5h-70v-162zM52 0v690q102 10 292 10q165 0 225.5 -49t60.5 -186q0 -135 -56 -184t-200 -49q-54 0 -105 6v-238h-217z"/>
<glyph glyph-name="Q" horiz-adv-x="707" unicode="Q" d="M248 -129l46 103q112 -42 329 -74l-53 -175q-198 57 -322 146zM353 543q-56 0 -74.5 -39.5t-18.5 -158.5t18.5 -158.5t74.5 -39.5t74.5 39.5t18.5 158.5t-18.5 158.5t-74.5 39.5zM353 704q123 0 190.5 -30.5t99.5 -108t32 -220.5t-32 -220.5t-99.5 -108t-190.5 -30.5 q-122 0 -189.5 30.5t-99.5 108t-32 220.5t32 220.5t99.5 108t189.5 30.5z"/>
<glyph glyph-name="R" horiz-adv-x="676" unicode="R" d="M265 405h75q47 0 62.5 14t15.5 57t-15.5 57t-62.5 14h-75v-142zM663 0h-227l-45 205q-6 28 -18.5 37.5t-40.5 9.5h-67v-252h-213v690q102 10 293 10q156 0 223.5 -46t67.5 -164q0 -150 -140 -164v-6q94 -12 113 -108z"/>
<glyph glyph-name="S" horiz-adv-x="610" unicode="S" d="M321 233l-137 60q-84 37 -119 84.5t-35 123.5q0 116 63 159.5t221 43.5q151 0 251 -35l-13 -139q-120 2 -243 2q-38 0 -51 -5t-13 -21q0 -14 12.5 -23.5t47.5 -23.5l125 -52q85 -37 120 -85t35 -125q0 -117 -61 -164t-221 -47q-135 0 -267 34l13 152q198 -5 251 -5 q41 0 54.5 5t13.5 19t-9.5 23t-37.5 19z"/>
<glyph glyph-name="T" horiz-adv-x="623" unicode="T" d="M613 528h-193v-528h-217v528h-193v162h603v-162z"/>
<glyph glyph-name="U" horiz-adv-x="705" unicode="U" d="M658 690v-405q0 -165 -66 -232t-228 -67q-175 0 -246 67t-71 232v405h217v-405q0 -83 18 -110.5t71 -27.5q52 0 70 27.5t18 110.5v405h217z"/>
<glyph glyph-name="V" horiz-adv-x="670" unicode="V" d="M672 690l-168 -632q-6 -26 -26 -42t-48 -16h-190q-28 0 -48 16t-26 42l-168 632h223l89 -449q2 -9 13 -79h24q4 35 13 79l89 449h223z"/>
<glyph glyph-name="W" horiz-adv-x="1003" unicode="W" d="M983 690l-86 -632q-4 -26 -25 -42t-49 -16h-184q-28 0 -49.5 16t-24.5 42l-47 381q-4 31 -8 101h-17q-4 -70 -8 -102l-46 -380q-3 -26 -24.5 -42t-49.5 -16h-185q-28 0 -49 16t-25 42l-86 632h214l35 -423q4 -68 4 -115h16q14 98 16 116l46 358q3 28 23.5 46t49.5 18h155 q29 0 49 -17.5t24 -46.5l47 -360q3 -30 15 -114h16q0 28 5 113l34 425h214z"/>
<glyph glyph-name="X" horiz-adv-x="677" unicode="X" d="M467 0l-128 290l-129 -290h-215l171 352l-157 338h214l116 -273l115 273h214l-157 -338l171 -352h-215z"/>
<glyph glyph-name="Y" horiz-adv-x="654" unicode="Y" d="M436 215v-215h-217v213l-229 477h223l87 -217q9 -22 21 -97h13q12 73 21 98l86 216h223z"/>
<glyph glyph-name="Z" horiz-adv-x="605" unicode="Z" d="M577 152v-152h-548v152l298 386h-288v152h528v-152l-298 -386h308z"/>
<glyph glyph-name="bracketleft" horiz-adv-x="363" unicode="[" d="M339 640h-60q-22 0 -22 -22v-633q0 -22 22 -22h60v-128h-177q-49 0 -75 22.5t-26 78.5v731q0 45 28 73t73 28h177v-128z"/>
<glyph glyph-name="backslash" horiz-adv-x="588" unicode="\" d="M573 -79h-165l-393 769h165z"/>
<glyph glyph-name="bracketright" horiz-adv-x="363" unicode="]" d="M24 768h177q45 0 73 -28t28 -73v-731q0 -45 -28 -73t-73 -28h-177v128h60q22 0 22 22v633q0 22 -22 22h-60v128z"/>
<glyph glyph-name="asciicircum" horiz-adv-x="497" unicode="^" d="M467 414l-81 -42l-132 157h-8l-136 -157l-80 42l144 239h152z"/>
<glyph glyph-name="underscore" horiz-adv-x="531" unicode="_" d="M491 -122h-451v122h451v-122z"/>
<glyph glyph-name="grave" horiz-adv-x="392" unicode="`" d="M352 597l-57 -86l-255 103l79 133z"/>
<glyph glyph-name="a" d="M225 175v-16q0 -31 42 -31q33 0 75 25v53h-79q-38 0 -38 -31zM67 356l-19 133q136 25 285 25q111 0 165 -46t54 -158v-310h-167l-19 70q-66 -84 -173 -84q-74 0 -123 37t-49 105v50q0 60 44 94.5t121 34.5h156v4q-1 27 -14 38.5t-45 11.5q-110 0 -216 -5z" unicode="a"/>
<glyph glyph-name="b" horiz-adv-x="618" unicode="b" d="M252 344v-211q36 -4 58 -4h8q33 2 45 26.5t12 99.5q0 63 -12 82.5t-49 19.5q-29 0 -62 -13zM252 700l2 -139v-13q0 -56 -15 -107q79 73 163 73q104 0 146.5 -59.5t42.5 -198.5q0 -56 -10.5 -99.5t-38 -84t-83 -62.5t-137.5 -22q-68 0 -154.5 11t-125.5 31v670h210z"/>
<glyph glyph-name="c" horiz-adv-x="528" unicode="c" d="M491 161l19 -131q-80 -42 -218 -42q-147 0 -206.5 59t-59.5 204t60 204t208 59q132 0 209 -37l-21 -130h-152q-49 0 -66.5 -19.5t-17.5 -76.5q0 -58 17.5 -77.5t66.5 -19.5q98 0 161 7z"/>
<glyph glyph-name="d" horiz-adv-x="620" unicode="d" d="M367 171v193q-33 13 -65 13q-34 0 -46 -21.5t-12 -97.5q0 -65 11.5 -83.5t43.5 -18.5q38 0 68 15zM577 700v-700h-167l-17 82q-50 -94 -184 -94q-95 0 -138 68t-43 200q0 147 45.5 202.5t144.5 55.5q96 0 153 -42q-4 70 -4 109v119h210z"/>
<glyph glyph-name="e" d="M246 303h70q34 0 43 6.5t9 31.5q0 23 -11.5 30.5t-41.5 7.5h-5q-36 0 -48 -13q-14 -14 -16 -63zM375 204h-125q6 -31 24.5 -43t58.5 -12q98 0 203 11l19 -126q-91 -46 -245 -46q-153 0 -219 63.5t-66 194.5q0 147 64 207.5t220 60.5q139 0 199 -44q62 -45 61 -137 q-1 -69 -43 -99q-44 -30 -151 -30z" unicode="e"/>
<glyph glyph-name="f" horiz-adv-x="427" unicode="f" d="M439 584h-88q-28 0 -38 -11.5t-10 -40.5v-32h119v-126h-119v-374h-211v374h-84v121l84 5v61q0 163 184 163q113 0 183 -14z"/>
<glyph glyph-name="g" horiz-adv-x="604" unicode="g" d="M309 19l-89 7q-17 -13 -17 -33q0 -19 18 -25.5t70 -6.5q57 0 76.5 5.5t19.5 21.5q0 17 -16 22.5t-62 8.5zM287 312q37 0 49.5 9t12.5 35t-12.5 34.5t-49.5 8.5t-50 -8.5t-13 -34.5t13 -35t50 -9zM591 423l-55 -9q8 -23 8 -58q0 -87 -57.5 -122.5t-199.5 -35.5 q-41 0 -74 3q-11 -11 -4 -27.5t32 -17.5l182 -12q84 -6 122 -44t38 -113q0 -102 -64 -135t-225 -33q-119 0 -181 15t-84 43.5t-22 83.5q0 37 17 62t61 44q-26 28 -26 64q1 10 3 21q10 49 51 69q-84 33 -84 135q0 86 58.5 122t200.5 36q93 0 145 -14h168z"/>
<glyph glyph-name="h" horiz-adv-x="621" unicode="h" d="M254 700v-149q0 -58 -10 -111q92 74 189 74q148 0 148 -140v-374h-210v307q0 16 -8 23t-28 7q-42 0 -82 -12v-325h-210v700h211z"/>
<glyph glyph-name="i" horiz-adv-x="303" unicode="i" d="M256 0h-209v500h209v-500zM107 729h89q61 0 61 -62v-51q0 -62 -61 -62h-89q-61 0 -61 62v51q0 62 61 62z"/>
<glyph glyph-name="j" horiz-adv-x="304" unicode="j" d="M257 500v-442q0 -80 -44 -149t-118 -99l-116 92q69 69 69 156v442h209zM105 739h89q61 0 61 -62v-51q0 -62 -61 -62h-89q-61 0 -61 62v51q0 62 61 62z"/>
<glyph glyph-name="k" horiz-adv-x="609" unicode="k" d="M273 216h-27q7 -45 7 -73v-143h-210v700h210v-268q0 -47 -8 -98h29l95 166h230l-105 -164q-21 -38 -58 -60v-4q12 -6 29.5 -26.5t28.5 -40.5l124 -205h-231z"/>
<glyph glyph-name="l" horiz-adv-x="358" unicode="l" d="M253 700v-518q0 -36 50 -36h34l23 -134q-20 -12 -65.5 -19t-81.5 -7q-79 0 -124 37t-45 103v574h209z"/>
<glyph glyph-name="m" horiz-adv-x="885" unicode="m" d="M207 500l18 -73q43 46 84.5 66.5t94.5 20.5q101 0 130 -74q75 74 167 74q144 0 144 -140v-374h-209v307q0 17 -7 23.5t-26 6.5q-27 0 -58 -12v-325h-202v307q0 30 -34 30q-26 0 -57 -11v-326h-209v500h164z"/>
<glyph glyph-name="n" horiz-adv-x="621" unicode="n" d="M208 500l19 -74q95 88 206 88q148 0 148 -140v-374h-210v307q0 16 -8 23t-28 7q-42 0 -82 -12v-325h-210v500h165z"/>
<glyph glyph-name="o" horiz-adv-x="611" unicode="o" d="M306 372q-37 0 -48.5 -23t-11.5 -100q0 -74 11.5 -96.5t48.5 -22.5q36 0 47.5 22.5t11.5 96.5q0 77 -11.5 100t-47.5 23zM306 514q153 0 216 -59.5t63 -205.5q0 -144 -63 -202.5t-216 -58.5q-154 0 -217 58.5t-63 202.5q0 146 63 205.5t217 59.5z"/>
<glyph glyph-name="p" horiz-adv-x="620" unicode="p" d="M253 343v-207q33 -13 66 -13t45 21.5t12 97.5t-11.5 97.5t-42.5 21.5q-33 0 -69 -18zM211 500l17 -68q24 34 75 57t109 23q95 0 137.5 -68t42.5 -200q0 -148 -45 -203t-144 -55q-97 0 -153 42q3 -57 3 -92v-17v-99h-210v680h168z"/>
<glyph glyph-name="q" horiz-adv-x="618" unicode="q" d="M366 168v201q-36 4 -58 4h-8q-34 -2 -45.5 -26.5t-11.5 -99.5q0 -57 12 -74.5t48 -17.5q28 0 63 13zM366 -180v130v14q0 56 14 108q-76 -84 -165 -84q-101 0 -144.5 65t-43.5 193q0 63 10.5 107.5t38 83t82.5 58t138 19.5q68 0 154.5 -11t125.5 -31v-652h-210z"/>
<glyph glyph-name="r" horiz-adv-x="452" unicode="r" d="M450 514l-18 -192h-53q-53 0 -126 -10v-312h-210v500h164l19 -73q93 87 195 87h29z"/>
<glyph glyph-name="s" horiz-adv-x="553" unicode="s" d="M265 174l-110 30q-77 22 -104 61t-27 103q0 72 53 109t179 37q149 0 256 -22l-13 -122h-197q-54 0 -64.5 -1.5t-10.5 -10.5t34 -17q15 -4 25 -7l115 -29q69 -19 100.5 -53.5t31.5 -97.5q0 -94 -54.5 -129.5t-187.5 -35.5q-138 0 -260 21l13 122h178q74 0 91 2t17 13 q0 2 -0.5 3.5t-2 3t-3 2.5t-4.5 2.5t-6.5 2t-9 2.5t-10.5 3t-13 3.5t-16 4.5z"/>
<glyph glyph-name="t" horiz-adv-x="438" unicode="t" d="M305 374v-192q0 -19 10 -27.5t33 -8.5h53l23 -134q-62 -26 -170 -26q-73 0 -116 37t-43 103v248h-85v121l84 4v132h211v-131h121v-126h-121z"/>
<glyph glyph-name="u" horiz-adv-x="615" unicode="u" d="M572 500v-500h-165l-19 73q-96 -87 -200 -87q-148 0 -148 140v374h210v-307q0 -31 37 -31q36 0 74 12v326h211z"/>
<glyph glyph-name="v" horiz-adv-x="601" unicode="v" d="M604 500l-148 -451q-15 -49 -66 -49h-179q-51 0 -66 49l-148 451h222l61 -276q6 -29 14 -94h13q1 5 15 94l60 276h222z"/>
<glyph glyph-name="w" horiz-adv-x="876" unicode="w" d="M868 500l-102 -447q-5 -24 -23.5 -38.5t-44.5 -14.5h-147q-28 0 -48.5 17.5t-23.5 44.5l-29 227q0 4 -6 88h-13q-4 -54 -7 -88l-29 -227q-3 -27 -23.5 -44.5t-48.5 -17.5h-145q-26 0 -44.5 14.5t-23.5 38.5l-102 447h208l36 -281q6 -62 8 -89h12q1 13 2.5 28t3.5 33t3 28 l28 220q3 27 23 44t48 17h115q28 0 48 -17t23 -45l27 -219q1 -10 5 -41t5 -48h12q9 86 9 89l35 281h209z"/>
<glyph glyph-name="x" horiz-adv-x="606" unicode="x" d="M401 0l-98 188l-98 -188h-208l145 255l-134 245h207l88 -175l88 175h207l-134 -245l145 -255h-208z"/>
<glyph glyph-name="y" horiz-adv-x="602" unicode="y" d="M604 500l-159 -486q-9 -30 -22 -57t-33.5 -56.5t-46 -50t-60.5 -36.5t-77 -18q-6 0 -12 -1q-37 0 -82 8l-14 113q59 12 93 31t54 53h-34q-51 0 -66 49l-148 451h223l59 -276q4 -27 13 -94h9q7 24 21 94l59 276h223z"/>
<glyph glyph-name="z" horiz-adv-x="541" unicode="z" d="M512 135v-135h-483v135l232 230h-226v135h471v-135l-232 -230h238z"/>
<glyph glyph-name="braceleft" horiz-adv-x="359" unicode="{" d="M330 768v-128q-23 0 -31 -0.5t-17.5 -4t-12 -11t-2.5 -22.5v-125v-10q0 -61 -24.5 -95.5t-91.5 -43.5q67 -18 93 -53t27 -92v-185q0 -6 0.5 -10.5t1 -8t3 -6t3.5 -4.5t5.5 -3t6.5 -2t8.5 -1h9.5h12h13v-128q-44 -7 -81 -7q-73 0 -127.5 35t-54.5 118v222q0 16 -2 25 t-10.5 16t-13 9.5t-23.5 9.5v130q23 7 29.5 11t11 15.5t4.5 37.5v165q0 83 54.5 118t127.5 35q37 0 81 -7z"/>
<glyph glyph-name="bar" horiz-adv-x="276" unicode="|" d="M211 -169h-146v950h146v-950z"/>
<glyph glyph-name="braceright" horiz-adv-x="359" unicode="}" d="M29 640v128q44 7 81 7q73 0 127.5 -35t54.5 -118v-165q0 -26 4.5 -37.5t11 -15.5t29.5 -11v-130q-16 -7 -19 -8t-12.5 -6.5t-11 -10t-4 -13.5t-2.5 -22v-222q0 -83 -54.5 -118t-127.5 -35q-37 0 -81 7v128h13h12h9.5t8.5 1t6.5 2t5.5 3t3.5 4.5t3 6t1 8t0.5 10.5v185 q1 57 27 92t93 53q-67 9 -91.5 43.5t-24.5 95.5v10v125q0 27 -11.5 32.5t-51.5 5.5z"/>
<glyph glyph-name="asciitilde" horiz-adv-x="500" unicode="~" d="M132 207h-87q-5 30 -5 55q0 44 21 79t67 35h2q21 0 66 -9.5t90.5 -21t52.5 -12.5q21 -4 25 3.5t4 34.5h87q6 -31 6 -57q0 -43 -20 -77.5t-67 -34.5h-4q-21 0 -65 9.5t-89.5 20.5t-55.5 13q-20 3 -24 -3t-4 -29v-6z"/>
<glyph glyph-name="uni00A0" horiz-adv-x="210" unicode=" "/>
<glyph glyph-name="exclamdown" horiz-adv-x="312" unicode="¡" d="M260 59v-234h-208v234l22 234h164zM133 520h47q41 0 56.5 -15.5t15.5 -56.5v-41q0 -41 -15.5 -56.5t-56.5 -15.5h-47q-41 0 -56.5 15.5t-15.5 56.5v41q0 41 15.5 56.5t56.5 15.5z"/>
<glyph glyph-name="cent" horiz-adv-x="541" unicode="¢" d="M495 247l19 -121q-64 -33 -167 -40l-10 -86h-155l11 92q-91 18 -129.5 77.5t-38.5 177.5q0 137 54 197t184 65l10 81h156l-11 -90q51 -10 89 -27l-21 -120h-154q-60 0 -80 -20.5t-20 -85.5t20 -86t80 -21q99 0 163 7z"/>
<glyph glyph-name="sterling" horiz-adv-x="603" unicode="£" d="M575 167v-167h-537v167q50 23 63.5 52t13.5 62q0 11 -1 23l-1 10h-76l-2 100h70l-8 95q-1 15 -1 29q0 89 48 127t175 38q103 0 234 -10l-10 -155h-185q-28 0 -38.5 -9t-10.5 -24v-6l9 -85h151l-5 -100h-135l1 -10q1 -9 1 -17q0 -30 -10 -56t-20.5 -36.5t-37.5 -31.5 q-5 -4 -7 -6q28 10 86 10h233z"/>
<glyph glyph-name="currency" horiz-adv-x="575" unicode="¤" d="M287 261q36 0 63 27.5t27 64.5q0 38 -27 65t-63 27t-63 -27t-27 -65q0 -37 27 -64.5t63 -27.5zM542 519l-70 -70q24 -46 24 -97q0 -52 -25 -99l71 -69l-86 -85l-70 69q-45 -25 -99 -25q-50 0 -98 24l-67 -67l-92 92l69 68q-21 45 -21 92q0 53 25 100l-67 67l86 85l67 -68 q45 25 98 25q55 0 101 -26l69 69z"/>
<glyph glyph-name="yen" horiz-adv-x="710" unicode="¥" d="M99 238h512v-110h-147v-128h-217v128h-146zM542 378h69v-110h-510l-2 110h69l-150 312h223l87 -207q9 -20 21 -97h13q12 77 21 98l86 206h223z"/>
<glyph glyph-name="brokenbar" horiz-adv-x="278" unicode="¦" d="M212 -169h-146v400h146v-400zM212 381h-146v400h146v-400z"/>
<glyph glyph-name="section" horiz-adv-x="565" unicode="§" d="M57 330h144q0 -52 14 -70.5t69 -47.5l145 -76q23 -12 33.5 -19t30.5 -26t29.5 -49.5t9.5 -72.5q0 -94 -59.5 -130t-190.5 -36q-140 0 -236 12l14 142q32 -2 157 -2q49 0 68 4.5t22 17.5q2 10 -4.5 18.5t-14.5 13t-24 11.5l-115 55q-91 43 -104 84t-13 65q0 47 25 106z M281 295l-145 76q-49 26 -68 49q-35 44 -35 117q0 95 59.5 131t190.5 36q125 0 236 -12l-14 -142q-16 1 -157 1q-51 0 -70.5 -4t-19.5 -21q0 -21 43 -40l115 -54q91 -43 104 -84t13 -65q0 -47 -25 -106h-144q0 52 -14 70t-69 48z"/>
<glyph glyph-name="dieresis" horiz-adv-x="436" unicode="¨" d="M278 720h69q39 0 39 -39v-63q0 -39 -39 -39h-69q-39 0 -39 39v63q0 39 39 39zM89 720h69q39 0 39 -39v-63q0 -39 -39 -39h-69q-39 0 -39 39v63q0 39 39 39z"/>
<glyph glyph-name="copyright" horiz-adv-x="782" unicode="©" d="M532 279l11 -108q-62 -21 -148 -21q-107 0 -150.5 44t-43.5 152t43.5 151.5t150.5 43.5q76 0 139 -16l-11 -109h-128q-24 0 -29.5 -12t-5.5 -58q0 -47 5.5 -58.5t29.5 -11.5q95 0 137 3zM391 607q-109 0 -185.5 -75t-76.5 -187t76.5 -187t185.5 -75q110 0 186 74.5 t76 187.5t-76 187.5t-186 74.5zM391 704q155 0 259.5 -101.5t104.5 -257.5t-104.5 -257.5t-259.5 -101.5q-154 0 -259 102t-105 257t105 257t259 102z"/>
<glyph glyph-name="ordfeminine" horiz-adv-x="433" unicode="ª" d="M176 394v-8q0 -17 25 -17q17 0 41 12v35l-42 -4q-24 -3 -24 -18zM63 510l-14 96q94 17 194 17q76 0 113 -31.5t37 -109.5v-205h-121l-12 44q-42 -54 -114 -54q-49 0 -82.5 25.5t-33.5 70.5v33q0 41 30 64.5t82 23.5h100q0 29 -35 29q-88 0 -144 -3z"/>
<glyph glyph-name="guillemotleft" horiz-adv-x="552" unicode="«" d="M524 401l-86 -150l86 -156l-110 -69l-158 203v44l158 197zM289 401l-86 -150l86 -156l-110 -69l-158 203v44l158 197z"/>
<glyph glyph-name="logicalnot" horiz-adv-x="571" unicode="¬" d="M523 381v-244h-155v100h-327v144h482z"/>
<glyph glyph-name="softhyphen" horiz-adv-x="380" unicode="­" d="M335 196h-291v122h291v-122z"/>
<glyph glyph-name="registered" horiz-adv-x="493" unicode="®" d="M233 505h15q13 0 17 3.5t4 12.5t-3.5 11.5t-17.5 2.5h-15v-30zM364 383h-90l-11 60q-4 11 -18 11h-12v-71h-85v208q32 3 103 3q56 0 80 -14t24 -50q0 -43 -49 -48v-2q34 -2 41 -34zM247 316q67 0 115.5 48.5t48.5 117.5q0 68 -48.5 116.5t-115.5 48.5q-68 0 -116.5 -48.5 t-48.5 -116.5q0 -69 48.5 -117.5t116.5 -48.5zM247 704q92 0 157 -65t65 -157q0 -93 -65 -158t-157 -65q-93 0 -158 65t-65 158q0 92 65 157t158 65z"/>
<glyph glyph-name="macron" horiz-adv-x="400" unicode="¯" d="M360 590h-320v123h320v-123z"/>
<glyph glyph-name="degree" horiz-adv-x="325" unicode="°" d="M163 614q-20 0 -33.5 -14t-13.5 -35t13.5 -35.5t33.5 -14.5q19 0 32.5 14.5t13.5 35.5t-13.5 35t-32.5 14zM163 704q58 0 100 -40.5t42 -98.5q0 -59 -42 -99.5t-100 -40.5q-59 0 -101 40.5t-42 99.5q0 58 42 98.5t101 40.5z"/>
<glyph glyph-name="plusminus" horiz-adv-x="558" unicode="±" d="M44 174h470v-155h-470v155zM514 465v-154h-158v-107h-153v107h-159v154h159v108h152v-108h159z"/>
<glyph glyph-name="twosuperior" horiz-adv-x="431" unicode="²" d="M45 652l-4 117q72 12 160 12q100 0 142.5 -24t42.5 -94q0 -21 -17 -49t-47 -53l-91 -75q28 8 52 8h5l108 -3v-131h-359v79q0 43 22 64l75 63q67 57 78 74q5 8 -8 9q-6 1 -20 1q-78 0 -139 2z"/>
<glyph glyph-name="threesuperior" horiz-adv-x="411" unicode="³" d="M46 662l-4 109q84 12 165 12q93 0 129 -21t36 -76q0 -51 -16 -75t-64 -30v-2q52 -7 72 -30t20 -77q0 -65 -39.5 -93t-137.5 -28q-81 0 -175 12l4 113q32 -1 125 -1q40 0 49.5 3.5t9.5 19.5q0 15 -7 19t-34 5l-87 3v93l87 4q26 1 32 4t6 16q0 12 -6.5 15t-32.5 3 q-62 0 -132 2z"/>
<glyph glyph-name="acute" horiz-adv-x="392" unicode="´" d="M352 614l-255 -103l-57 86l233 150z"/>
<glyph glyph-name="paragraph" horiz-adv-x="621" unicode="¶" d="M256 -210v411q-127 11 -181.5 69t-54.5 180q0 138 77 195t260 57q115 0 192 -17v-685h-127v578l-39 1v-789h-127z"/>
<glyph glyph-name="periodcentered" horiz-adv-x="265" unicode="·" d="M109 351h47q41 0 56.5 -15.5t15.5 -56.5v-41q0 -41 -15.5 -56.5t-56.5 -15.5h-47q-41 0 -56.5 15.5t-15.5 56.5v41q0 41 15.5 56.5t56.5 15.5z"/>
<glyph glyph-name="cedilla" horiz-adv-x="263" unicode="¸" d="M53 -105l19 72q52 8 89 8q29 0 47 -5q40 -11 40 -61v-7q-4 -84 -70 -122q-49 -29 -117 -28q-23 0 -47 3l22 78q40 0 62 9.5t25 41.5q1 10 -11 11h-59z"/>
<glyph glyph-name="onesuperior" horiz-adv-x="321" unicode="¹" d="M275 360h-160v231q0 35 6 60l-97 -14l-18 98l109 39h160v-414z"/>
<glyph glyph-name="ordmasculine" horiz-adv-x="435" unicode="º" d="M218 521q-21 0 -27 -14t-6 -63q0 -47 6 -60.5t27 -13.5q20 0 26 13.5t6 60.5q0 49 -6 63t-26 14zM218 623q105 0 147.5 -40.5t42.5 -138.5q0 -97 -42.5 -136t-147.5 -39t-148 39t-43 136q0 98 43 138.5t148 40.5z"/>
<glyph glyph-name="guillemotright" horiz-adv-x="552" unicode="»" d="M531 273v-44l-158 -203l-110 69l86 156l-86 150l110 69zM296 273v-44l-158 -203l-110 69l86 156l-86 150l110 69z"/>
<glyph glyph-name="onequarter" horiz-adv-x="944" unicode="¼" d="M920 177v-87l-44 -14h-1v-76h-147v76h-172q-29 0 -41 16t-12 30q0 9 4 19l103 273h141l-83 -227q-4 -10 10 -10h50v93l25 61h122v-154h45zM683 690l-387 -690h-126l387 690h126zM120 276v231q0 35 6 60l-89 -14l-18 98l101 39h160v-414h-160z"/>
<glyph glyph-name="onehalf" horiz-adv-x="943" unicode="½" d="M568 292l-4 117q71 12 157 12q100 0 141.5 -24t41.5 -94q0 -20 -16.5 -48.5t-46.5 -53.5l-87 -75q28 8 50 8h5l104 -3v-131h-353v79q0 43 22 64l72 63q69 64 76 74q5 8 -9 10h-17q-76 0 -136 2zM296 0h-126l386 690h127zM280 276h-160v231q0 35 6 60l-89 -14l-18 98 l101 39h160v-414z"/>
<glyph glyph-name="threequarters" horiz-adv-x="1017" unicode="¾" d="M995 177v-87l-44 -14h-1v-76h-147v76h-171q-29 0 -41.5 16t-12.5 30q0 9 4 19l103 273h141l-83 -227q-2 -6 0.5 -8t10.5 -2h49v93l25 61h122v-154h45zM759 690l-387 -690h-126l386 690h127zM285 494v-2q52 -7 71 -30t19 -77q0 -65 -38.5 -93t-134.5 -28q-79 0 -172 12 l4 113q32 -1 122 -1q38 0 46.5 3.5t8.5 19.5q0 18 -6.5 22.5t-30.5 3.5h-85v95h85q23 0 28.5 4t5.5 19q0 12 -5.5 14.5t-29.5 3.5q-96 2 -129 2l-4 109q82 12 163 12q91 0 125.5 -21t34.5 -76q0 -52 -15.5 -75.5t-62.5 -29.5z"/>
<glyph glyph-name="questiondown" horiz-adv-x="531" unicode="¿" d="M201 291h164v-17q0 -48 -15.5 -95t-38.5 -76t-44.5 -56.5t-24.5 -41.5q-4 -19 8.5 -26t47.5 -7h207l5 -138q-8 -2 -37.5 -7.5t-37.5 -7t-33.5 -5.5t-43.5 -5t-47.5 -2t-64.5 -1q-116 0 -171.5 38t-55.5 117q0 40 17 73.5t41.5 59t50.5 51.5t47 63.5t26 82.5zM260 518h47 q41 0 56.5 -15.5t15.5 -56.5v-41q0 -41 -15.5 -56.5t-56.5 -15.5h-47q-41 0 -56.5 15.5t-15.5 56.5v41q0 41 15.5 56.5t56.5 15.5z"/>
<glyph glyph-name="Agrave" horiz-adv-x="683" unicode="À" d="M401 301l-34 148q-9 47 -12 79h-27q-6 -47 -12 -79l-34 -148h119zM436 149h-189l-35 -149h-221l179 634q7 25 27 40.5t46 15.5h197q26 0 46 -15.5t27 -40.5l179 -634h-221zM386 720l-255 103l79 133l233 -150z"/>
<glyph glyph-name="Aacute" horiz-adv-x="683" unicode="Á" d="M401 301l-34 148q-9 47 -12 79h-27q-6 -47 -12 -79l-34 -148h119zM436 149h-189l-35 -149h-221l179 634q7 25 27 40.5t46 15.5h197q26 0 46 -15.5t27 -40.5l179 -634h-221zM298 720l-57 86l233 150l79 -133z"/>
<glyph glyph-name="Acircumflex" horiz-adv-x="683" unicode="Â" d="M401 301l-34 148q-9 47 -12 79h-27q-6 -47 -12 -79l-34 -148h119zM436 149h-189l-35 -149h-221l179 634q7 25 27 40.5t46 15.5h197q26 0 46 -15.5t27 -40.5l179 -634h-221zM178 710l-50 77l140 133h152l135 -141l-48 -69l-159 93h-8z"/>
<glyph glyph-name="Atilde" horiz-adv-x="683" unicode="Ã" d="M401 301l-34 148q-9 47 -12 79h-27q-6 -47 -12 -79l-34 -148h119zM436 149h-189l-35 -149h-221l179 634q7 25 27 40.5t46 15.5h197q26 0 46 -15.5t27 -40.5l179 -634h-221zM239 751h-87q-5 29 -5 54q0 45 21.5 80t62.5 35h6q40 -3 98 -21.5t71 -21.5q21 -4 25 3.5t4 34.5 h87q6 -30 6 -55q0 -43 -20 -78.5t-65 -35.5h-6q-39 3 -98 22t-72 21q-20 3 -24 -3t-4 -29v-6z"/>
<glyph glyph-name="Adieresis" horiz-adv-x="683" unicode="Ä" d="M401 301l-34 148q-9 47 -12 79h-27q-6 -47 -12 -79l-34 -148h119zM436 149h-189l-35 -149h-221l179 634q7 25 27 40.5t46 15.5h197q26 0 46 -15.5t27 -40.5l179 -634h-221zM470 763h-69q-39 0 -39 39v63q0 39 39 39h69q39 0 39 -39v-63q0 -39 -39 -39zM281 763h-69 q-39 0 -39 39v63q0 39 39 39h69q39 0 39 -39v-63q0 -39 -39 -39z"/>
<glyph glyph-name="Aring" horiz-adv-x="683" unicode="Å" d="M401 301l-34 148q-9 47 -12 79h-27q-6 -47 -12 -79l-34 -148h119zM436 149h-189l-35 -149h-221l179 634q7 25 27 40.5t46 15.5h197q26 0 46 -15.5t27 -40.5l179 -634h-221zM343 883q-18 0 -31 -13.5t-13 -31.5q0 -19 13 -32t31 -13t31 13t13 32q0 18 -13 31.5t-31 13.5z M343 713q-53 0 -91 36.5t-38 88.5t38 88.5t91 36.5t91 -36.5t38 -88.5t-38 -88.5t-91 -36.5z"/>
<glyph glyph-name="AE" horiz-adv-x="954" unicode="Æ" d="M439 309v189q0 32 15 62h-14q-4 -5 -23 -44l-86 -207h108zM916 159l10 -150q-104 -13 -341 -13q-67 0 -106.5 43t-39.5 114v8h-170l-67 -161h-221l241 534q27 60 62 92t104.5 49t187.5 17q229 0 350 -11l-10 -150h-236q-17 0 -28 -10t-11 -26v-75h241v-134h-241v-91 q0 -16 10.5 -26t28.5 -10h236z"/>
<glyph glyph-name="Ccedilla" horiz-adv-x="605" unicode="Ç" d="M236 -137l19 72q52 8 89 8q29 0 58 -8t29 -58v-7q-4 -83 -61.5 -116.5t-125.5 -33.5q-23 0 -47 3l22 78q40 0 62 9.5t25 41.5q1 10 -11 11h-59zM571 179l16 -158q-96 -33 -242 -33q-172 0 -242.5 80t-70.5 277t70.5 277t242.5 80q129 0 227 -27l-16 -158q-140 2 -211 2 q-51 0 -68 -34.5t-17 -139.5t17 -139.5t68 -34.5q149 0 226 8z"/>
<glyph glyph-name="Egrave" horiz-adv-x="596" unicode="È" d="M558 162l10 -153q-100 -13 -359 -13q-71 0 -116.5 43.5t-45.5 113.5v384q0 70 45.5 113.5t116.5 43.5q259 0 359 -13l-10 -153h-253q-19 0 -30 -10t-11 -26v-67h258v-144h-258v-83q0 -16 11 -26t30 -10h253zM366 720l-255 103l79 133l233 -150z"/>
<glyph glyph-name="Eacute" horiz-adv-x="596" unicode="É" d="M558 162l10 -153q-100 -13 -359 -13q-71 0 -116.5 43.5t-45.5 113.5v384q0 70 45.5 113.5t116.5 43.5q259 0 359 -13l-10 -153h-253q-19 0 -30 -10t-11 -26v-67h258v-144h-258v-83q0 -16 11 -26t30 -10h253zM278 720l-57 86l233 150l79 -133z"/>
<glyph glyph-name="Ecircumflex" horiz-adv-x="596" unicode="Ê" d="M558 162l10 -153q-100 -13 -359 -13q-71 0 -116.5 43.5t-45.5 113.5v384q0 70 45.5 113.5t116.5 43.5q259 0 359 -13l-10 -153h-253q-19 0 -30 -10t-11 -26v-67h258v-144h-258v-83q0 -16 11 -26t30 -10h253zM158 710l-50 77l140 133h152l135 -141l-48 -69l-159 93h-8z "/>
<glyph glyph-name="Edieresis" horiz-adv-x="596" unicode="Ë" d="M558 162l10 -153q-100 -13 -359 -13q-71 0 -116.5 43.5t-45.5 113.5v384q0 70 45.5 113.5t116.5 43.5q259 0 359 -13l-10 -153h-253q-19 0 -30 -10t-11 -26v-67h258v-144h-258v-83q0 -16 11 -26t30 -10h253zM450 763h-69q-39 0 -39 39v63q0 39 39 39h69q39 0 39 -39v-63 q0 -39 -39 -39zM261 763h-69q-39 0 -39 39v63q0 39 39 39h69q39 0 39 -39v-63q0 -39 -39 -39z"/>
<glyph glyph-name="Igrave" horiz-adv-x="321" unicode="Ì" d="M268 0h-215v690h215v-690zM261 806l-57 -86l-255 103l79 133z"/>
<glyph glyph-name="Iacute" horiz-adv-x="321" unicode="Í" d="M268 0h-215v690h215v-690zM371 823l-255 -103l-57 86l233 150z"/>
<glyph glyph-name="Icircumflex" horiz-adv-x="321" unicode="Î" d="M268 0h-215v690h215v-690zM373 779l-48 -69l-159 93h-8l-162 -93l-50 77l140 133h152z"/>
<glyph glyph-name="Idieresis" horiz-adv-x="321" unicode="Ï" d="M268 0h-215v690h215v-690zM219 904h69q39 0 39 -39v-63q0 -39 -39 -39h-69q-39 0 -39 39v63q0 39 39 39zM30 904h69q39 0 39 -39v-63q0 -39 -39 -39h-69q-39 0 -39 39v63q0 39 39 39z"/>
<glyph glyph-name="Eth" horiz-adv-x="701" unicode="Ð" d="M269 148l78 -1q56 0 74.5 39.5t18.5 158.5t-18.5 158.5t-74.5 39.5h-78v-134h99v-104h-99v-157zM52 409v281q176 10 295 10q123 0 190.5 -30.5t99.5 -107t32 -217.5t-32 -217.5t-99.5 -107t-190.5 -30.5q-150 0 -295 10v305h-45v104h45z"/>
<glyph glyph-name="Ntilde" horiz-adv-x="738" unicode="Ñ" d="M687 690v-615q0 -75 -75 -75h-83q-31 0 -47.5 14t-36.5 49l-150 237q-25 45 -46 118h-7q10 -70 10 -126v-292h-200v615q0 75 75 75h83q31 0 47 -14t37 -49l144 -226q27 -48 53 -118h7q-9 74 -10 125v282h199zM273 751h-87q-5 29 -5 54q0 45 21.5 80t62.5 35h6 q40 -3 98 -21.5t71 -21.5q21 -4 25 3.5t4 34.5h87q6 -30 6 -55q0 -43 -20 -78.5t-65 -35.5h-6q-39 3 -98 22t-72 21q-20 3 -24 -3t-4 -29v-6z"/>
<glyph glyph-name="Ograve" horiz-adv-x="707" unicode="Ò" d="M353 543q-56 0 -74.5 -39.5t-18.5 -158.5t18.5 -158.5t74.5 -39.5t74.5 39.5t18.5 158.5t-18.5 158.5t-74.5 39.5zM353 704q123 0 190.5 -30.5t99.5 -108t32 -220.5t-32 -220.5t-99.5 -108t-190.5 -30.5q-122 0 -189.5 30.5t-99.5 108t-32 220.5t32 220.5t99.5 108 t189.5 30.5zM453 806l-57 -86l-255 103l79 133z"/>
<glyph glyph-name="Oacute" horiz-adv-x="707" unicode="Ó" d="M353 543q-56 0 -74.5 -39.5t-18.5 -158.5t18.5 -158.5t74.5 -39.5t74.5 39.5t18.5 158.5t-18.5 158.5t-74.5 39.5zM353 704q123 0 190.5 -30.5t99.5 -108t32 -220.5t-32 -220.5t-99.5 -108t-190.5 -30.5q-122 0 -189.5 30.5t-99.5 108t-32 220.5t32 220.5t99.5 108 t189.5 30.5zM563 823l-255 -103l-57 86l233 150z"/>
<glyph glyph-name="Ocircumflex" horiz-adv-x="707" unicode="Ô" d="M353 543q-56 0 -74.5 -39.5t-18.5 -158.5t18.5 -158.5t74.5 -39.5t74.5 39.5t18.5 158.5t-18.5 158.5t-74.5 39.5zM353 704q123 0 190.5 -30.5t99.5 -108t32 -220.5t-32 -220.5t-99.5 -108t-190.5 -30.5q-122 0 -189.5 30.5t-99.5 108t-32 220.5t32 220.5t99.5 108 t189.5 30.5zM565 779l-48 -69l-159 93h-8l-162 -93l-50 77l140 133h152z"/>
<glyph glyph-name="Otilde" horiz-adv-x="707" unicode="Õ" d="M353 543q-56 0 -74.5 -39.5t-18.5 -158.5t18.5 -158.5t74.5 -39.5t74.5 39.5t18.5 158.5t-18.5 158.5t-74.5 39.5zM353 704q123 0 190.5 -30.5t99.5 -108t32 -220.5t-32 -220.5t-99.5 -108t-190.5 -30.5q-122 0 -189.5 30.5t-99.5 108t-32 220.5t32 220.5t99.5 108 t189.5 30.5zM249 751h-87q-5 29 -5 54q0 45 21.5 80t62.5 35h6q40 -3 98 -21.5t71 -21.5q21 -4 25 3.5t4 34.5h87q6 -30 6 -55q0 -43 -20 -78.5t-65 -35.5h-6q-39 3 -98 22t-72 21q-20 3 -24 -3t-4 -29v-6z"/>
<glyph glyph-name="Odieresis" horiz-adv-x="707" unicode="Ö" d="M353 543q-56 0 -74.5 -39.5t-18.5 -158.5t18.5 -158.5t74.5 -39.5t74.5 39.5t18.5 158.5t-18.5 158.5t-74.5 39.5zM353 704q123 0 190.5 -30.5t99.5 -108t32 -220.5t-32 -220.5t-99.5 -108t-190.5 -30.5q-122 0 -189.5 30.5t-99.5 108t-32 220.5t32 220.5t99.5 108 t189.5 30.5zM411 904h69q39 0 39 -39v-63q0 -39 -39 -39h-69q-39 0 -39 39v63q0 39 39 39zM222 904h69q39 0 39 -39v-63q0 -39 -39 -39h-69q-39 0 -39 39v63q0 39 39 39z"/>
<glyph glyph-name="multiply" horiz-adv-x="506" unicode="×" d="M19 185l373 331l97 -116l-374 -330z"/>
<glyph glyph-name="Oslash" horiz-adv-x="707" unicode="Ø" d="M353 147q56 0 74.5 39.5t18.5 158.5t-18.5 158.5t-74.5 39.5t-74.5 -39.5t-18.5 -158.5t18.5 -158.5t74.5 -39.5zM632 730l-40 -88q44 -39 63.5 -110.5t19.5 -186.5q0 -143 -32 -220.5t-99.5 -108t-190.5 -30.5q-37 0 -70 3l-50 -107l-161 77l43 90q-83 73 -83 296 q0 143 32 220.5t99.5 108t189.5 30.5q37 0 70 -3l48 105z"/>
<glyph glyph-name="Ugrave" horiz-adv-x="705" unicode="Ù" d="M658 690v-405q0 -165 -66 -232t-228 -67q-175 0 -246 67t-71 232v405h217v-405q0 -83 18 -110.5t71 -27.5q52 0 70 27.5t18 110.5v405h217zM453 806l-57 -86l-255 103l79 133z"/>
<glyph glyph-name="Uacute" horiz-adv-x="705" unicode="Ú" d="M658 690v-405q0 -165 -66 -232t-228 -67q-175 0 -246 67t-71 232v405h217v-405q0 -83 18 -110.5t71 -27.5q52 0 70 27.5t18 110.5v405h217zM563 823l-255 -103l-57 86l233 150z"/>
<glyph glyph-name="Ucircumflex" horiz-adv-x="705" unicode="Û" d="M658 690v-405q0 -165 -66 -232t-228 -67q-175 0 -246 67t-71 232v405h217v-405q0 -83 18 -110.5t71 -27.5q52 0 70 27.5t18 110.5v405h217zM565 779l-48 -69l-159 93h-8l-162 -93l-50 77l140 133h152z"/>
<glyph glyph-name="Udieresis" horiz-adv-x="705" unicode="Ü" d="M658 690v-405q0 -165 -66 -232t-228 -67q-175 0 -246 67t-71 232v405h217v-405q0 -83 18 -110.5t71 -27.5q52 0 70 27.5t18 110.5v405h217zM411 904h69q39 0 39 -39v-63q0 -39 -39 -39h-69q-39 0 -39 39v63q0 39 39 39zM222 904h69q39 0 39 -39v-63q0 -39 -39 -39h-69 q-39 0 -39 39v63q0 39 39 39z"/>
<glyph glyph-name="Yacute" horiz-adv-x="654" unicode="Ý" d="M436 215v-215h-217v213l-229 477h223l87 -217q9 -22 21 -97h13q12 73 21 98l86 216h223zM282 720l-57 86l233 150l79 -133z"/>
<glyph glyph-name="Thorn" horiz-adv-x="633" unicode="Þ" d="M270 263h62q40 0 53.5 16t13.5 64q0 50 -13.5 66t-53.5 16h-62v-162zM270 578h67q161 0 220 -49t59 -186q0 -135 -54.5 -184t-194.5 -49q-44 0 -97 5v-115h-217v690h217v-112z"/>
<glyph glyph-name="germandbls" horiz-adv-x="738" unicode="ß" d="M598 319l52 -42q51 -44 66.5 -68t15.5 -68q0 -77 -45 -114.5t-161 -37.5q-62 0 -181 11l13 128h117q36 0 41 6q3 4 3 14q0 6 -4 13t-12.5 15.5t-16.5 15.5t-22.5 19t-23.5 20l-30 20q-35 29 -52 55.5t-17 63.5q0 16 5 30t11 22.5t20.5 28t24.5 33.5q21 30 27.5 44.5 t6.5 31.5q0 26 -12.5 34t-53.5 8q-44 0 -57 -11.5t-13 -49.5v-541h-210v374h-82v121l82 5v66q0 98 62 137t216 39q106 0 162.5 -18t76.5 -52.5t20 -97.5q0 -31 -8.5 -53t-37.5 -60q-42 -55 -42 -75q0 -6 3 -12.5t10 -13.5l12 -12t16.5 -14.5t17.5 -14.5z"/>
<glyph glyph-name="agrave" d="M225 175v-16q0 -31 42 -31q33 0 75 25v53h-79q-38 0 -38 -31zM67 356l-19 133q136 25 285 25q111 0 165 -46t54 -158v-310h-167l-19 70q-66 -84 -173 -84q-74 0 -123 37t-49 105v50q0 60 44 94.5t121 34.5h156v4q-1 27 -14 38.5t-45 11.5q-110 0 -216 -5zM346 532 l-255 103l79 133l233 -150z" unicode="à"/>
<glyph glyph-name="aacute" d="M225 175v-16q0 -31 42 -31q33 0 75 25v53h-79q-38 0 -38 -31zM67 356l-19 133q136 25 285 25q111 0 165 -46t54 -158v-310h-167l-19 70q-66 -84 -173 -84q-74 0 -123 37t-49 105v50q0 60 44 94.5t121 34.5h156v4q-1 27 -14 38.5t-45 11.5q-110 0 -216 -5zM258 532l-57 86 l233 150l79 -133z" unicode="á"/>
<glyph glyph-name="acircumflex" d="M225 175v-16q0 -31 42 -31q33 0 75 25v53h-79q-38 0 -38 -31zM67 356l-19 133q136 25 285 25q111 0 165 -46t54 -158v-310h-167l-19 70q-66 -84 -173 -84q-74 0 -123 37t-49 105v50q0 60 44 94.5t121 34.5h156v4q-1 27 -14 38.5t-45 11.5q-110 0 -216 -5zM138 522l-50 77 l140 133h152l135 -141l-48 -69l-159 93h-8z" unicode="â"/>
<glyph glyph-name="atilde" d="M225 175v-16q0 -31 42 -31q33 0 75 25v53h-79q-38 0 -38 -31zM67 356l-19 133q136 25 285 25q111 0 165 -46t54 -158v-310h-167l-19 70q-66 -84 -173 -84q-74 0 -123 37t-49 105v50q0 60 44 94.5t121 34.5h156v4q-1 27 -14 38.5t-45 11.5q-110 0 -216 -5zM199 563h-87 q-5 29 -5 54q0 45 21.5 80t62.5 35h6q40 -3 98 -21.5t71 -21.5q21 -4 25 3.5t4 34.5h87q6 -30 6 -55q0 -43 -20 -78.5t-65 -35.5h-6q-39 3 -98 22t-72 21q-20 3 -24 -3t-4 -29v-6z" unicode="ã"/>
<glyph glyph-name="adieresis" d="M225 175v-16q0 -31 42 -31q33 0 75 25v53h-79q-38 0 -38 -31zM67 356l-19 133q136 25 285 25q111 0 165 -46t54 -158v-310h-167l-19 70q-66 -84 -173 -84q-74 0 -123 37t-49 105v50q0 60 44 94.5t121 34.5h156v4q-1 27 -14 38.5t-45 11.5q-110 0 -216 -5zM430 575h-69 q-39 0 -39 39v63q0 39 39 39h69q39 0 39 -39v-63q0 -39 -39 -39zM241 575h-69q-39 0 -39 39v63q0 39 39 39h69q39 0 39 -39v-63q0 -39 -39 -39z" unicode="ä"/>
<glyph glyph-name="aring" d="M225 175v-16q0 -31 42 -31q33 0 75 25v53h-79q-38 0 -38 -31zM67 356l-19 133q136 25 285 25q111 0 165 -46t54 -158v-310h-167l-19 70q-66 -84 -173 -84q-74 0 -123 37t-49 105v50q0 60 44 94.5t121 34.5h156v4q-1 27 -14 38.5t-45 11.5q-110 0 -216 -5zM303 695 q-18 0 -31 -13.5t-13 -31.5q0 -19 13 -32t31 -13t31 13t13 32q0 18 -13 31.5t-31 13.5zM303 525q-53 0 -91 36.5t-38 88.5t38 88.5t91 36.5t91 -36.5t38 -88.5t-38 -88.5t-91 -36.5z" unicode="å"/>
<glyph glyph-name="ae" horiz-adv-x="886" unicode="æ" d="M225 175v-16q0 -31 39 -31q34 0 76 27q-6 32 -7 51h-72q-36 0 -36 -31zM543 303h70q33 0 42 6.5t9 31.5q0 23 -10.5 30.5t-37.5 7.5h-5q-37 0 -51.5 -13.5t-16.5 -62.5zM672 204h-126q7 -31 26 -43t62 -12q94 0 198 11l19 -126q-89 -46 -240 -46q-172 0 -236 88 q-67 -90 -186 -90q-72 0 -120 37t-48 105v50q0 58 43.5 92t117.5 34h149v7q0 27 -12 38.5t-42 11.5q-107 0 -211 -5l-19 133q132 25 280 25q79 0 128 -23q57 23 155 23q135 0 195 -44.5t60 -136.5q0 -68 -42.5 -98.5t-150.5 -30.5z"/>
<glyph glyph-name="ccedilla" horiz-adv-x="528" unicode="ç" d="M189 -122l19 72q52 8 89 8q29 0 58 -8t29 -58v-7q-4 -83 -61.5 -116.5t-125.5 -33.5q-23 0 -47 3l22 78q40 0 62 9.5t25 41.5q1 10 -11 11h-59zM491 161l19 -131q-80 -42 -218 -42q-147 0 -206.5 59t-59.5 204t60 204t208 59q132 0 209 -37l-21 -130h-152 q-49 0 -66.5 -19.5t-17.5 -76.5q0 -58 17.5 -77.5t66.5 -19.5q98 0 161 7z"/>
<glyph glyph-name="egrave" d="M246 303h70q34 0 43 6.5t9 31.5q0 23 -11.5 30.5t-41.5 7.5h-5q-36 0 -49 -13.5t-15 -62.5zM375 204h-125q6 -31 24.5 -43t58.5 -12q98 0 203 11l19 -126q-91 -46 -245 -46q-153 0 -219 63.5t-66 194.5q0 147 64 207.5t220 60.5q138 0 199 -44.5t61 -136.5q0 -69 -43 -99 t-151 -30zM355 532l-255 103l79 133l233 -150z" unicode="è"/>
<glyph glyph-name="eacute" d="M246 303h70q34 0 43 6.5t9 31.5q0 23 -11.5 30.5t-41.5 7.5h-5q-36 0 -49 -13.5t-15 -62.5zM375 204h-125q6 -31 24.5 -43t58.5 -12q98 0 203 11l19 -126q-91 -46 -245 -46q-153 0 -219 63.5t-66 194.5q0 147 64 207.5t220 60.5q138 0 199 -44.5t61 -136.5q0 -69 -43 -99 t-151 -30zM267 532l-57 86l233 150l79 -133z" unicode="é"/>
<glyph glyph-name="ecircumflex" d="M246 303h70q34 0 43 6.5t9 31.5q0 23 -11.5 30.5t-41.5 7.5h-5q-36 0 -49 -13.5t-15 -62.5zM375 204h-125q6 -31 24.5 -43t58.5 -12q98 0 203 11l19 -126q-91 -46 -245 -46q-153 0 -219 63.5t-66 194.5q0 147 64 207.5t220 60.5q138 0 199 -44.5t61 -136.5q0 -69 -43 -99 t-151 -30zM147 522l-50 77l140 133h152l135 -141l-48 -69l-159 93h-8z" unicode="ê"/>
<glyph glyph-name="edieresis" d="M246 303h70q34 0 43 6.5t9 31.5q0 23 -11.5 30.5t-41.5 7.5h-5q-36 0 -49 -13.5t-15 -62.5zM375 204h-125q6 -31 24.5 -43t58.5 -12q98 0 203 11l19 -126q-91 -46 -245 -46q-153 0 -219 63.5t-66 194.5q0 147 64 207.5t220 60.5q138 0 199 -44.5t61 -136.5q0 -69 -43 -99 t-151 -30zM439 575h-69q-39 0 -39 39v63q0 39 39 39h69q39 0 39 -39v-63q0 -39 -39 -39zM250 575h-69q-39 0 -39 39v63q0 39 39 39h69q39 0 39 -39v-63q0 -39 -39 -39z" unicode="ë"/>
<glyph glyph-name="igrave" horiz-adv-x="305" unicode="ì" d="M258 0h-211v500h211v-500zM253 618l-57 -86l-255 103l79 133z"/>
<glyph glyph-name="iacute" horiz-adv-x="305" unicode="í" d="M258 0h-211v500h211v-500zM363 635l-255 -103l-57 86l233 150z"/>
<glyph glyph-name="icircumflex" horiz-adv-x="305" unicode="î" d="M258 0h-211v500h211v-500zM365 591l-48 -69l-159 93h-8l-162 -93l-50 77l140 133h152z"/>
<glyph glyph-name="idieresis" horiz-adv-x="305" unicode="ï" d="M258 0h-211v500h211v-500zM211 716h69q39 0 39 -39v-63q0 -39 -39 -39h-69q-39 0 -39 39v63q0 39 39 39zM22 716h69q39 0 39 -39v-63q0 -39 -39 -39h-69q-39 0 -39 39v63q0 39 39 39z"/>
<glyph glyph-name="eth" horiz-adv-x="604" unicode="ð" d="M299 130q37 0 47 29t10 131v18q-26 3 -54 3q-31 0 -43 -16t-12 -77q0 -54 10 -71t42 -17zM558 641l-67 -67q85 -107 85 -283q0 -169 -65.5 -237t-213.5 -68q-139 0 -204.5 55.5t-65.5 172.5q0 125 51.5 182t173.5 57q54 0 94 -12q-15 76 -58 102.5t-116 26.5 q-20 0 -43 -2l17 130q24 2 47 2q92 0 164 -29l82 83z"/>
<glyph glyph-name="ntilde" horiz-adv-x="621" unicode="ñ" d="M208 500l19 -74q95 88 206 88q148 0 148 -140v-374h-210v307q0 16 -8 23t-28 7q-42 0 -82 -12v-325h-210v500h165zM216 563h-87q-5 29 -5 54q0 45 21.5 80t62.5 35h6q40 -3 98 -21.5t71 -21.5q21 -4 25 3.5t4 34.5h87q6 -30 6 -55q0 -43 -20 -78.5t-65 -35.5h-6 q-39 3 -98 22t-72 21q-20 3 -24 -3t-4 -29v-6z"/>
<glyph glyph-name="ograve" horiz-adv-x="611" unicode="ò" d="M306 372q-37 0 -48.5 -23t-11.5 -100q0 -74 11.5 -96.5t48.5 -22.5q36 0 47.5 22.5t11.5 96.5q0 77 -11.5 100t-47.5 23zM306 514q153 0 216 -59.5t63 -205.5q0 -144 -63 -202.5t-216 -58.5q-154 0 -217 58.5t-63 202.5q0 146 63 205.5t217 59.5zM409 618l-57 -86 l-255 103l79 133z"/>
<glyph glyph-name="oacute" horiz-adv-x="611" unicode="ó" d="M306 372q-37 0 -48.5 -23t-11.5 -100q0 -74 11.5 -96.5t48.5 -22.5q36 0 47.5 22.5t11.5 96.5q0 77 -11.5 100t-47.5 23zM306 514q153 0 216 -59.5t63 -205.5q0 -144 -63 -202.5t-216 -58.5q-154 0 -217 58.5t-63 202.5q0 146 63 205.5t217 59.5zM519 635l-255 -103 l-57 86l233 150z"/>
<glyph glyph-name="ocircumflex" horiz-adv-x="611" unicode="ô" d="M306 372q-37 0 -48.5 -23t-11.5 -100q0 -74 11.5 -96.5t48.5 -22.5q36 0 47.5 22.5t11.5 96.5q0 77 -11.5 100t-47.5 23zM306 514q153 0 216 -59.5t63 -205.5q0 -144 -63 -202.5t-216 -58.5q-154 0 -217 58.5t-63 202.5q0 146 63 205.5t217 59.5zM521 591l-48 -69 l-159 93h-8l-162 -93l-50 77l140 133h152z"/>
<glyph glyph-name="otilde" horiz-adv-x="611" unicode="õ" d="M306 372q-37 0 -48.5 -23t-11.5 -100q0 -74 11.5 -96.5t48.5 -22.5q36 0 47.5 22.5t11.5 96.5q0 77 -11.5 100t-47.5 23zM306 514q153 0 216 -59.5t63 -205.5q0 -144 -63 -202.5t-216 -58.5q-154 0 -217 58.5t-63 202.5q0 146 63 205.5t217 59.5zM205 563h-87 q-5 29 -5 54q0 45 21.5 80t62.5 35h6q40 -3 98 -21.5t71 -21.5q21 -4 25 3.5t4 34.5h87q6 -30 6 -55q0 -43 -20 -78.5t-65 -35.5h-6q-39 3 -98 22t-72 21q-20 3 -24 -3t-4 -29v-6z"/>
<glyph glyph-name="odieresis" horiz-adv-x="611" unicode="ö" d="M306 372q-37 0 -48.5 -23t-11.5 -100q0 -74 11.5 -96.5t48.5 -22.5q36 0 47.5 22.5t11.5 96.5q0 77 -11.5 100t-47.5 23zM306 514q153 0 216 -59.5t63 -205.5q0 -144 -63 -202.5t-216 -58.5q-154 0 -217 58.5t-63 202.5q0 146 63 205.5t217 59.5zM367 716h69q39 0 39 -39 v-63q0 -39 -39 -39h-69q-39 0 -39 39v63q0 39 39 39zM178 716h69q39 0 39 -39v-63q0 -39 -39 -39h-69q-39 0 -39 39v63q0 39 39 39z"/>
<glyph glyph-name="divide" horiz-adv-x="535" unicode="÷" d="M242 176h50q44 0 60.5 -16.5t16.5 -60.5v-18q0 -43 -16.5 -60t-60.5 -17h-50q-44 0 -60.5 16.5t-16.5 60.5v18q0 44 16.5 60.5t60.5 16.5zM508 219h-481v146h481v-146zM242 577h50q44 0 60.5 -16.5t16.5 -60.5v-18q0 -44 -16.5 -60.5t-60.5 -16.5h-50q-44 0 -60.5 16.5 t-16.5 60.5v18q0 44 16.5 60.5t60.5 16.5z"/>
<glyph glyph-name="oslash" horiz-adv-x="611" unicode="ø" d="M306 130q36 0 47.5 22.5t11.5 96.5q0 77 -11.5 100t-47.5 23q-37 0 -48.5 -23t-11.5 -100q0 -74 11.5 -96.5t48.5 -22.5zM530 541l-33 -67q88 -57 88 -225q0 -144 -63 -202.5t-216 -58.5q-29 0 -42 1l-45 -93l-140 71l31 63q-84 56 -84 219q0 146 63 205.5t217 59.5 l36 -1l48 100z"/>
<glyph glyph-name="ugrave" horiz-adv-x="615" unicode="ù" d="M572 500v-500h-165l-19 73q-96 -87 -200 -87q-148 0 -148 140v374h210v-307q0 -31 37 -31q36 0 74 12v326h211zM352 543l-255 103l79 133l233 -150z"/>
<glyph glyph-name="uacute" horiz-adv-x="615" unicode="ú" d="M572 500v-500h-165l-19 73q-96 -87 -200 -87q-148 0 -148 140v374h210v-307q0 -31 37 -31q36 0 74 12v326h211zM264 543l-57 86l233 150l79 -133z"/>
<glyph glyph-name="ucircumflex" horiz-adv-x="615" unicode="û" d="M572 500v-500h-165l-19 73q-96 -87 -200 -87q-148 0 -148 140v374h210v-307q0 -31 37 -31q36 0 74 12v326h211zM144 533l-50 77l140 133h152l135 -141l-48 -69l-159 93h-8z"/>
<glyph glyph-name="udieresis" horiz-adv-x="615" unicode="ü" d="M572 500v-500h-165l-19 73q-96 -87 -200 -87q-148 0 -148 140v374h210v-307q0 -31 37 -31q36 0 74 12v326h211zM436 586h-69q-39 0 -39 39v63q0 39 39 39h69q39 0 39 -39v-63q0 -39 -39 -39zM247 586h-69q-39 0 -39 39v63q0 39 39 39h69q39 0 39 -39v-63q0 -39 -39 -39z "/>
<glyph glyph-name="yacute" horiz-adv-x="602" unicode="ý" d="M604 500l-159 -486q-9 -30 -22 -57t-33.5 -56.5t-46 -50t-60.5 -37t-59 -17.5t-30 -1q-37 0 -82 8l-14 113q59 12 93 31t54 53h-34q-51 0 -66 49l-148 451h223l59 -276q4 -27 13 -94h9q7 24 21 94l59 276h223zM260 532l-57 86l233 150l79 -133z"/>
<glyph glyph-name="thorn" horiz-adv-x="620" unicode="þ" d="M253 344v-208q33 -13 65 -13q34 0 46 21.5t12 97.5t-11.5 97.5t-43.5 21.5t-68 -17zM253 700v-100v-12q0 -45 -6 -131q57 55 163 55q96 0 139 -68t43 -200q0 -148 -45 -203t-144 -55q-97 0 -154 41q4 -52 4 -92v-16v-99h-210v880h210z"/>
<glyph glyph-name="uni0401" horiz-adv-x="598" unicode="Ё" d="M560 162l10 -153q-100 -13 -359 -13q-71 0 -116.5 43.5t-45.5 113.5v384q0 70 45.5 113.5t116.5 43.5q259 0 359 -13l-10 -153h-253q-19 0 -30 -10t-11 -26v-67h258v-144h-258v-83q0 -16 11 -26t30 -10h253zM452 763h-69q-39 0 -39 39v63q0 39 39 39h69q39 0 39 -39v-63 q0 -39 -39 -39zM263 763h-69q-39 0 -39 39v63q0 39 39 39h69q39 0 39 -39v-63q0 -39 -39 -39z"/>
<glyph glyph-name="uni0402" horiz-adv-x="777" unicode="Ђ" d="M417 528v-113q87 39 167 39q97 0 137.5 -46.5t40.5 -167.5q0 -73 -21 -125t-60 -79.5t-86.5 -39.5t-109.5 -12l-20 150q46 12 62.5 33.5t16.5 63.5q0 37 -8.5 46.5t-38.5 9.5q-42 0 -80 -11v-276h-217v528h-190v162h597v-162h-190z"/>
<glyph glyph-name="uni0403" horiz-adv-x="554" unicode="Ѓ" d="M54 0v537q0 70 45 113.5t116 43.5q241 0 335 -14l-10 -152h-227q-19 0 -30.5 -10t-11.5 -26v-492h-217zM514 823l-255 -103l-57 86l233 150z"/>
<glyph glyph-name="uni0404" horiz-adv-x="607" unicode="Є" d="M568 179l16 -158q-94 -33 -235 -33q-174 0 -245.5 80t-71.5 277t71.5 277t245.5 80q132 0 230 -27l-16 -158q-142 2 -214 2q-46 0 -66 -21t-25 -78h269v-134h-270q4 -67 23.5 -91t68.5 -24q145 0 219 8z"/>
<glyph glyph-name="uni0405" horiz-adv-x="610" unicode="Ѕ" d="M321 233l-137 60q-84 37 -119 84.5t-35 123.5q0 116 63 159.5t221 43.5q151 0 251 -35l-13 -139q-120 2 -243 2q-38 0 -51 -5t-13 -21q0 -14 12.5 -23.5t47.5 -23.5l125 -52q85 -37 120 -85t35 -125q0 -117 -61 -164t-221 -47q-135 0 -267 34l13 152q198 -5 251 -5 q41 0 54.5 5t13.5 19t-9.5 23t-37.5 19z"/>
<glyph glyph-name="uni0406" horiz-adv-x="329" unicode="І" d="M272 0h-215v690h215v-690z"/>
<glyph glyph-name="uni0407" horiz-adv-x="329" unicode="Ї" d="M272 0h-215v690h215v-690zM223 904h69q39 0 39 -39v-63q0 -39 -39 -39h-69q-39 0 -39 39v63q0 39 39 39zM34 904h69q39 0 39 -39v-63q0 -39 -39 -39h-69q-39 0 -39 39v63q0 39 39 39z"/>
<glyph glyph-name="uni0408" horiz-adv-x="408" unicode="Ј" d="M354 690v-563q0 -67 -49 -104t-134 -37q-39 0 -88.5 7t-72.5 19l23 136h47q59 0 59 35v507h215z"/>
<glyph glyph-name="uni0409" horiz-adv-x="983" unicode="Љ" d="M645 142h44q35 0 45.5 17t10.5 72t-10.5 73t-45.5 18h-44v-180zM645 453h44q156 0 215 -48.5t59 -180.5t-54 -182t-182 -50q-187 0 -290 8h-6v548h-35q-42 0 -47 -46q-22 -252 -47 -338q-33 -113 -88.5 -144.5t-117.5 -31.5q-33 0 -71 7l-15 148q26 5 40.5 10.5t30 22 t25.5 46.5q21 61 39 305q12 163 170 163h330v-237z"/>
<glyph glyph-name="uni040A" horiz-adv-x="974" unicode="Њ" d="M638 142h54q28 0 36.5 16t8.5 67q0 49 -8.5 64.5t-36.5 15.5h-54v-163zM638 436h54q149 0 206 -45.5t57 -167.5q0 -131 -52 -181t-172 -50q-198 0 -301 8h-6v295h-149v-295h-218v690h218v-253h149v253h214v-254z"/>
<glyph glyph-name="uni040B" horiz-adv-x="810" unicode="Ћ" d="M417 528v-95q98 31 172 31q100 0 146.5 -43.5t46.5 -136.5v-284h-218v237q0 31 -10.5 40.5t-45.5 9.5h-91v-287h-217v528h-190v162h597v-162h-190z"/>
<glyph glyph-name="uni040C" horiz-adv-x="681" unicode="Ќ" d="M441 363v-6q101 -15 133 -63t91 -256q7 -25 11 -38h-226q-53 197 -68 232q-20 44 -51 52q-15 4 -42 4h-23q8 -35 8 -63v-225h-217v690h217v-174q0 -47 -10 -88h22q62 0 84 39t59 194q5 19 7 29h220q-58 -194 -62 -206q-26 -72 -65 -95q-28 -18 -88 -26zM310 720l-57 86 l233 150l79 -133z"/>
<glyph glyph-name="uni040D" horiz-adv-x="734" unicode="Ѝ" d="M677 0h-206v317q0 41 11 107h-7q-18 -61 -42 -106l-169 -318h-207v690h206v-306q0 -42 -11 -112h7q19 60 44 106l168 312h206v-690zM476 806l-57 -86l-255 103l79 133z"/>
<glyph glyph-name="uni040E" horiz-adv-x="623" unicode="Ў" d="M630 690l-150 -503q-30 -103 -70 -148t-120 -53q-20 -2 -45 -2q-68 0 -168 16l23 148q40 -2 69 -2t57 3t36 27l4 16h-41q-45 0 -70 24t-38 70l-124 404h222l78 -335q2 -11 16 -11h9l90 346h222zM397 922l97 -13q2 -13 2 -26q0 -53 -45 -99.5t-135 -46.5t-135.5 46.5 t-45.5 99.5q0 13 2 26l97 13q0 -32 18.5 -45.5t63.5 -13.5q44 0 62.5 13.5t18.5 45.5z"/>
<glyph glyph-name="uni040F" horiz-adv-x="721" unicode="Џ" d="M664 690v-690h-218l-8 -151h-148l-8 151h-225v690h217v-548h173v548h217z"/>
<glyph glyph-name="uni0410" horiz-adv-x="683" unicode="А" d="M401 301l-34 148q-9 47 -12 79h-27q-6 -47 -12 -79l-34 -148h119zM436 149h-189l-35 -149h-221l179 634q7 25 27 40.5t46 15.5h197q26 0 46 -15.5t27 -40.5l179 -634h-221z"/>
<glyph glyph-name="uni0411" horiz-adv-x="648" unicode="Б" d="M273 142h69q43 0 56 14.5t13 60.5t-13 60.5t-56 14.5h-69v-150zM273 423h69q162 0 224 -45t62 -168t-60 -170.5t-197 -47.5q-202 0 -309 8h-6v690q117 8 257 8q128 0 266 -8l-16 -155h-290v-112z"/>
<glyph glyph-name="uni0412" horiz-adv-x="664" unicode="В" d="M268 139h80q45 0 59 15t14 62q0 48 -14 63t-60 15h-79v-155zM268 421h77q38 0 50 13t12 53t-12.5 52t-51.5 12h-75v-130zM488 361v-6q80 -7 114.5 -52t34.5 -131q0 -103 -57.5 -141.5t-192.5 -38.5q-219 0 -331 8v690q102 8 298 8q147 0 203.5 -37.5t56.5 -142.5 q0 -75 -29.5 -113t-96.5 -44z"/>
<glyph glyph-name="uni0413" horiz-adv-x="554" unicode="Г" d="M54 0v537q0 70 45 113.5t116 43.5q241 0 335 -14l-10 -152h-227q-19 0 -30.5 -10t-11.5 -26v-492h-217z"/>
<glyph glyph-name="uni0414" horiz-adv-x="783" unicode="Д" d="M459 142v406h-41q-42 0 -46 -48q-14 -136 -32 -215t-49 -143h168zM771 142v-293h-157l-15 151h-416l-15 -151h-157v293h76q61 173 84 395q7 67 53.5 110t117.5 43h334v-548h95z"/>
<glyph glyph-name="uni0415" horiz-adv-x="598" unicode="Е" d="M560 162l10 -153q-100 -13 -359 -13q-71 0 -116.5 43.5t-45.5 113.5v384q0 70 45.5 113.5t116.5 43.5q259 0 359 -13l-10 -153h-253q-19 0 -30 -10t-11 -26v-67h258v-144h-258v-83q0 -16 11 -26t30 -10h253z"/>
<glyph glyph-name="uni0416" horiz-adv-x="968" unicode="Ж" d="M735 363v-6q36 -6 57.5 -11.5t41.5 -21t31.5 -32.5t26 -55t25.5 -77.5t31 -111.5q8 -31 13 -48h-227q-63 217 -73 240q-16 40 -39 46q-7 2 -20 2h-23q8 -35 8 -63v-225h-207v225q0 23 9 63h-24q-25 0 -37.5 -14t-26.5 -52.5t-43 -138.5q-15 -52 -24 -83h-227 q57 209 75 251q27 64 71 85q26 13 80 21v6q-24 3 -41 7t-32 12.5t-24.5 14.5t-20.5 24t-16.5 29t-15.5 42t-15.5 51t-18.5 67t-22 80h220q53 -190 62 -212q17 -43 43 -49q6 -1 14 -1h25q-10 41 -10 88v174h206v-174q0 -44 -9 -88h22q34 0 50 31.5t50 155.5q13 47 21 75h220 q-9 -33 -22 -80t-18.5 -67t-15.5 -51t-15.5 -42t-16.5 -29t-20.5 -24t-24.5 -14.5t-32 -12.5t-41 -7z"/>
<glyph glyph-name="uni0417" horiz-adv-x="586" unicode="З" d="M47 527l-16 148q99 23 252 23q142 0 196.5 -37.5t54.5 -142.5q0 -76 -28 -113.5t-92 -43.5v-6q76 -7 109 -52t33 -131q0 -103 -55.5 -141.5t-185.5 -38.5q-178 0 -295 38l16 141q144 -23 236 -23q37 0 49.5 13.5t12.5 54.5q0 43 -12.5 56.5t-50.5 14.5l-152 3v135l150 3 q31 1 41 12.5t10 46.5q0 33 -10.5 44t-41.5 11q-90 0 -221 -15z"/>
<glyph glyph-name="uni0418" horiz-adv-x="734" unicode="И" d="M677 0h-206v317q0 41 11 107h-7q-18 -61 -42 -106l-169 -318h-207v690h206v-306q0 -42 -11 -112h7q19 60 44 106l168 312h206v-690z"/>
<glyph glyph-name="uni0419" horiz-adv-x="734" unicode="Й" d="M677 0h-206v317q0 41 11 107h-7q-18 -61 -42 -106l-169 -318h-207v690h206v-306q0 -42 -11 -112h7q19 60 44 106l168 312h206v-690zM427 910h127q3 -14 3 -27q0 -51 -46 -98.5t-135 -47.5t-135 48t-46 100q0 12 2 25h127q-2 -14 -2 -25q0 -24 11 -38t43 -14q31 0 42 14 t11 38q0 11 -2 25z"/>
<glyph glyph-name="uni041A" horiz-adv-x="681" unicode="К" d="M441 363v-6q101 -15 133 -63t91 -256q7 -25 11 -38h-226q-53 197 -68 232q-20 44 -51 52q-15 4 -42 4h-23q8 -35 8 -63v-225h-217v690h217v-174q0 -47 -10 -88h22q62 0 84 39t59 194q5 19 7 29h220q-58 -194 -62 -206q-26 -72 -65 -95q-28 -18 -88 -26z"/>
<glyph glyph-name="uni041B" horiz-adv-x="710" unicode="Л" d="M653 690v-690h-217v548h-42q-50 0 -53 -46q-18 -239 -48 -338q-33 -114 -92 -144.5t-122 -30.5q-32 0 -68 6l-15 168q28 3 43.5 7t31 16.5t23.5 35.5q27 80 42 295q11 173 182 173h335z"/>
<glyph glyph-name="uni041C" horiz-adv-x="960" unicode="М" d="M625 690h191q73 0 76 -75l24 -615h-195l-21 528h-15l-68 -352q-11 -66 -82 -66h-112q-71 0 -83 66l-69 352h-15l-17 -528h-195l24 615q3 75 76 75h187q70 0 82 -67l50 -274q5 -32 11 -103h9q0 3 4.5 43t7.5 60l47 274q12 67 83 67z"/>
<glyph glyph-name="uni041D" horiz-adv-x="722" unicode="Н" d="M665 690v-690h-217v290h-174v-290h-217v690h217v-248h174v248h217z"/>
<glyph glyph-name="uni041E" horiz-adv-x="707" unicode="О" d="M353 543q-56 0 -74.5 -39.5t-18.5 -158.5t18.5 -158.5t74.5 -39.5t74.5 39.5t18.5 158.5t-18.5 158.5t-74.5 39.5zM353 704q123 0 190.5 -30.5t99.5 -108t32 -220.5t-32 -220.5t-99.5 -108t-190.5 -30.5q-122 0 -189.5 30.5t-99.5 108t-32 220.5t32 220.5t99.5 108 t189.5 30.5z"/>
<glyph glyph-name="uni041F" horiz-adv-x="718" unicode="П" d="M661 690v-690h-217v548h-170v-548h-217v690h604z"/>
<glyph glyph-name="uni0420" horiz-adv-x="650" unicode="Р" d="M273 385h70q44 0 59 16t15 64q0 49 -15 65.5t-59 16.5h-70v-162zM56 0v690q102 10 292 10q165 0 225.5 -49t60.5 -186q0 -135 -56 -184t-200 -49q-54 0 -105 6v-238h-217z"/>
<glyph glyph-name="uni0421" horiz-adv-x="605" unicode="С" d="M571 179l16 -158q-96 -33 -242 -33q-172 0 -242.5 80t-70.5 277t70.5 277t242.5 80q129 0 227 -27l-16 -158q-140 2 -211 2q-51 0 -68 -34.5t-17 -139.5t17 -139.5t68 -34.5q149 0 226 8z"/>
<glyph glyph-name="uni0422" horiz-adv-x="623" unicode="Т" d="M613 528h-193v-528h-217v528h-193v162h603v-162z"/>
<glyph glyph-name="uni0423" horiz-adv-x="623" unicode="У" d="M630 690l-150 -503q-30 -103 -70 -148t-120 -53q-20 -2 -45 -2q-68 0 -168 16l23 148q40 -2 69 -2t47 2q38 4 46 28l4 16h-41q-45 0 -70 24t-38 70l-124 404h222l78 -335q2 -11 16 -11h9l90 346h222z"/>
<glyph glyph-name="uni0424" horiz-adv-x="877" unicode="Ф" d="M537 499v-278q66 7 86.5 34.5t20.5 99.5q0 77 -20.5 107t-86.5 37zM340 221v278q-66 -7 -86.5 -36.5t-20.5 -107.5q0 -72 20.5 -99.5t86.5 -34.5zM547 734v-83q174 -12 244 -77.5t70 -218.5q0 -147 -70 -210.5t-244 -75.5v-83h-217v83q-174 11 -244 75t-70 211 q0 153 70 218.5t244 77.5v83h217z"/>
<glyph glyph-name="uni0425" horiz-adv-x="677" unicode="Х" d="M467 0l-128 290l-129 -290h-215l171 352l-157 338h214l116 -273l115 273h214l-157 -338l171 -352h-215z"/>
<glyph glyph-name="uni0426" horiz-adv-x="734" unicode="Ц" d="M721 142v-293h-157l-15 151h-492v690h217v-548h154v548h217v-548h76z"/>
<glyph glyph-name="uni0427" horiz-adv-x="694" unicode="Ч" d="M637 690v-690h-217v262q-100 -46 -189 -46q-101 0 -148.5 43.5t-47.5 136.5v294h217v-247v-8q0 -23 11 -32.5t48 -9.5q61 0 109 14v283h217z"/>
<glyph glyph-name="uni0428" horiz-adv-x="1019" unicode="Ш" d="M962 690v-690h-905v690h212v-548h135v548h211v-548h135v548h212z"/>
<glyph glyph-name="uni0429" horiz-adv-x="1048" unicode="Щ" d="M1034 142v-293h-157l-15 151h-805v690h212v-548h133v548h212v-548h133v548h212v-548h75z"/>
<glyph glyph-name="uni042A" horiz-adv-x="786" unicode="Ъ" d="M436 142h55q36 0 46.5 17t10.5 72q0 56 -10.5 73.5t-46.5 17.5h-55v-180zM436 453h55q156 0 215.5 -48.5t59.5 -181.5q0 -131 -54.5 -181t-181.5 -50q-202 0 -306 8h-6v528h-209v162h427v-237z"/>
<glyph glyph-name="uni042B" horiz-adv-x="955" unicode="Ы" d="M275 142h56q36 0 47 17t11 72q0 56 -11 73.5t-47 17.5h-56v-180zM898 690v-690h-218v690h218zM275 453h56q157 0 216.5 -48.5t59.5 -181.5q0 -131 -55 -181t-182 -50q-203 0 -307 8h-6v690h218v-237z"/>
<glyph glyph-name="uni042C" horiz-adv-x="634" unicode="Ь" d="M274 142h61q39 0 50.5 17t11.5 72t-11.5 73t-50.5 18h-61v-180zM274 453h61q159 0 219 -48.5t60 -181.5q0 -131 -55.5 -181t-184.5 -50q-206 0 -311 8h-6v690h217v-237z"/>
<glyph glyph-name="uni042D" horiz-adv-x="607" unicode="Э" d="M44 517l-16 158q98 27 230 27q174 0 245.5 -80t71.5 -277t-71.5 -277t-245.5 -80q-142 0 -235 33l16 158q74 -8 219 -8q49 0 68.5 24t23.5 91h-270v134h269q-5 57 -25 78t-66 21q-72 0 -214 -2z"/>
<glyph glyph-name="uni042E" horiz-adv-x="1021" unicode="Ю" d="M670 147q54 0 71.5 39t17.5 159t-17.5 159t-71.5 39q-52 0 -68.5 -38.5t-16.5 -159.5t16.5 -159.5t68.5 -38.5zM275 427h101q11 159 77 218t217 59q122 0 188.5 -30.5t98.5 -108t32 -220.5t-32 -220.5t-98.5 -108t-188.5 -30.5q-156 0 -222 63.5t-74 235.5h-99v-285h-218 v690h218v-263z"/>
<glyph glyph-name="uni042F" horiz-adv-x="664" unicode="Я" d="M391 405v142h-62q-43 0 -56.5 -14t-13.5 -57t13.5 -57t56.5 -14h62zM175 320v6q-134 14 -134 164q0 118 65.5 164t217.5 46q185 0 284 -10v-690h-217v252h-54q-27 0 -38 -9.5t-16 -37.5l-43 -205h-227l52 212q18 95 110 108z"/>
<glyph glyph-name="uni0430" horiz-adv-x="594" unicode="а" d="M226 175v-16q0 -31 42 -31q33 0 75 25v53h-79q-38 0 -38 -31zM68 356l-19 133q136 25 285 25q111 0 165 -46t54 -158v-310h-167l-19 70q-66 -84 -173 -84q-74 0 -123 37t-49 105v50q0 60 44 94.5t121 34.5h156v4q-1 27 -14 38.5t-45 11.5q-110 0 -216 -5z"/>
<glyph glyph-name="uni0431" horiz-adv-x="615" unicode="б" d="M310 362q-38 0 -49 -21t-11 -92q0 -74 11.5 -96.5t47.5 -22.5t47.5 22.5t11.5 96.5q0 71 -11 92t-47 21zM531 741l28 -159q-57 -30 -148.5 -31.5t-119.5 -9.5q-59 -16 -78 -41q-18 -22 -26 -76h4q62 58 171 58q125 0 175.5 -54t50.5 -181q0 -135 -61 -197t-205 -62 q-59 0 -104 9t-75 23t-51 40t-32 49t-17 62.5t-7 68.5t-1 78q0 75 7.5 129.5t26.5 104.5t56.5 84.5t93.5 54.5q53 19 156.5 24t155.5 26z"/>
<glyph glyph-name="uni0432" horiz-adv-x="593" unicode="в" d="M243 122h72q28 0 38.5 9t10.5 35q0 24 -10.5 32.5t-39.5 8.5h-71v-85zM243 308h71q26 0 35 7.5t9 27.5q0 21 -9.5 28t-36.5 7h-69v-70zM441 260v-5q70 -4 100.5 -37t30.5 -94q0 -76 -51 -104.5t-169 -28.5q-198 0 -306 6v503q97 6 276 6q130 0 180 -27.5t50 -105.5 q0 -54 -26 -81.5t-85 -31.5z"/>
<glyph glyph-name="uni0433" horiz-adv-x="493" unicode="г" d="M43 0v376q0 69 35.5 100.5t110.5 31.5q218 0 299 -17l-10 -146h-193q-19 0 -26.5 -6.5t-7.5 -23.5v-315h-208z"/>
<glyph glyph-name="uni0434" horiz-adv-x="673" unicode="д" d="M378 136v236h-28q-34 0 -40 -35q-21 -123 -53 -201h121zM661 136v-272h-139l-14 136h-345l-14 -136h-139v272h61q33 95 58 242q20 122 147 122h299v-364h86z"/>
<glyph glyph-name="uni0435" d="M246 303h70q34 0 43 6.5t9 31.5q0 23 -11.5 30.5t-41.5 7.5h-5q-36 0 -49 -13.5t-15 -62.5zM375 204h-125q6 -31 24.5 -43t58.5 -12q98 0 203 11l19 -126q-91 -46 -245 -46q-153 0 -219 63.5t-66 194.5q0 147 64 207.5t220 60.5q138 0 199 -44.5t61 -136.5q0 -69 -43 -99 t-151 -30z" unicode="е"/>
<glyph glyph-name="uni0436" horiz-adv-x="856" unicode="ж" d="M656 264v-6q73 -11 90 -21q31 -16 54 -79q13 -35 50 -158h-212q-43 133 -55 162.5t-28 31.5h-40q5 -25 5 -40v-154h-184v154q0 18 6 40h-40q-15 -2 -27.5 -33t-55.5 -161h-212q49 167 68 200q20 36 58 46q13 4 68 12v6h-1h-1q-70 9 -88 23q-25 17 -48 85q-6 19 -22 71 q-11 36 -18 57h206q44 -143 56 -161q14 -15 38 -15h21q-7 31 -7 65v111h183v-111q0 -27 -7 -65h19q31 0 41.5 18.5t46.5 135.5q5 14 7 22h206q-47 -153 -57 -173q-17 -39 -48 -50q-17 -6 -72 -13z"/>
<glyph glyph-name="uni0437" horiz-adv-x="535" unicode="з" d="M42 353l-13 134q90 27 198 27q152 0 209 -25.5t57 -112.5q0 -59 -25.5 -85t-84.5 -31v-5q69 -4 99.5 -36t30.5 -94q0 -37 -11 -62.5t-29 -40.5t-51.5 -23t-68 -10.5t-87.5 -2.5q-144 0 -247 24l13 134q116 -12 219 -12q31 0 39.5 5t8.5 27q0 17 -8 20.5t-41 5.5l-168 4 v117l167 4q18 1 25 2.5t10.5 6t3.5 15.5q0 18 -8 22t-39 4q-96 0 -199 -12z"/>
<glyph glyph-name="uni0438" horiz-adv-x="632" unicode="и" d="M586 0l-187 -2v196q0 38 8 94h-5q-15 -49 -42 -90l-128 -198h-186v500h186v-209q0 -31 -8 -81h5q8 28 39 78l132 212h186v-500z"/>
<glyph glyph-name="uni0439" horiz-adv-x="632" unicode="й" d="M586 0l-187 -2v196q0 38 8 94h-5q-15 -49 -42 -90l-128 -198h-186v500h186v-209q0 -31 -8 -81h5q8 28 39 78l132 212h186v-500zM368 722h127q3 -14 3 -27q0 -51 -46 -98.5t-135 -47.5t-135 48t-46 100q0 12 2 25h127q-2 -14 -2 -25q0 -24 11 -38t43 -14q31 0 42 14t11 38 q0 11 -2 25z"/>
<glyph glyph-name="uni043A" horiz-adv-x="594" unicode="к" d="M401 263v-6q7 -1 20 -3q74 -11 94.5 -41.5t68.5 -202.5q2 -7 3 -10h-218q-35 130 -45 159t-28 32h-46q5 -23 5 -39v-152h-209v500h209v-109q0 -34 -7 -66h18q38 0 49 18.5t35 122.5q5 22 8 34h212q-47 -159 -51 -171q-16 -40 -44 -51q-15 -6 -74 -15z"/>
<glyph glyph-name="uni043B" horiz-adv-x="622" unicode="л" d="M576 500v-500h-209v364h-26q-39 0 -42 -35q-10 -90 -25 -197q-9 -66 -47.5 -102.5t-72 -39t-48.5 -2.5q-39 0 -82 7l-21 153q7 1 22 2t22 2.5t16.5 5t14.5 11t8 19.5q12 48 22 182q9 130 137 130h331z"/>
<glyph glyph-name="uni043C" horiz-adv-x="822" unicode="м" d="M525 500h176q69 0 71 -71l11 -429h-190l-11 348h-11l-41 -211q-10 -64 -78 -64h-83q-69 0 -79 64l-42 211h-11l-7 -348h-190l10 429q2 71 72 71h172q68 0 77 -65l29 -156q2 -10 7 -76h6q1 8 2.5 34.5t4.5 41.5l27 156q9 65 78 65z"/>
<glyph glyph-name="uni043D" horiz-adv-x="628" unicode="н" d="M582 500v-500h-206v195h-123v-195h-207v500h207v-170h123v170h206z"/>
<glyph glyph-name="uni043E" horiz-adv-x="611" unicode="о" d="M306 372q-37 0 -48.5 -23t-11.5 -100q0 -74 11.5 -96.5t48.5 -22.5q36 0 47.5 22.5t11.5 96.5q0 77 -11.5 100t-47.5 23zM306 514q153 0 216 -59.5t63 -205.5q0 -144 -63 -202.5t-216 -58.5q-154 0 -217 58.5t-63 202.5q0 146 63 205.5t217 59.5z"/>
<glyph glyph-name="uni043F" horiz-adv-x="621" unicode="п" d="M575 501v-501h-204v365h-121v-365h-204v501h529z"/>
<glyph glyph-name="uni0440" horiz-adv-x="623" unicode="р" d="M256 343v-207q33 -13 66 -13t45 21.5t12 97.5t-11.5 97.5t-42.5 21.5q-33 0 -69 -18zM214 500l17 -68q24 34 75 57t109 23q95 0 137.5 -68t42.5 -200q0 -148 -45 -203t-144 -55q-97 0 -153 42q3 -57 3 -92v-17v-99h-210v680h168z"/>
<glyph glyph-name="uni0441" horiz-adv-x="528" unicode="с" d="M491 161l19 -131q-80 -42 -218 -42q-147 0 -206.5 59t-59.5 204t60 204t208 59q132 0 209 -37l-21 -130h-152q-49 0 -66.5 -19.5t-17.5 -76.5q0 -58 17.5 -77.5t66.5 -19.5q98 0 161 7z"/>
<glyph glyph-name="uni0442" horiz-adv-x="537" unicode="т" d="M526 344h-153v-344h-209v344h-153v156h515v-156z"/>
<glyph glyph-name="uni0443" horiz-adv-x="602" unicode="у" d="M604 500l-159 -486q-30 -100 -77.5 -145t-121.5 -66q-46 -13 -97 -13q-52 0 -109 13l16 133h8q95 0 140 22q24 12 42 42h-35q-51 0 -66 49l-148 451h223l59 -276q4 -27 13 -94h9q8 27 21 94l59 276h223z"/>
<glyph glyph-name="uni0444" horiz-adv-x="780" unicode="ф" d="M306 125v252q-49 -9 -66 -36.5t-17 -91.5q0 -62 17 -89t66 -35zM473 377v-252q49 8 66 35t17 89q0 64 -17 91.5t-66 36.5zM483 700v-189q146 -13 208.5 -73.5t62.5 -188.5q0 -127 -62.5 -186.5t-208.5 -71.5v-171h-187v171q-146 13 -208.5 72.5t-62.5 185.5 q0 128 62.5 188.5t208.5 72.5v190h187z"/>
<glyph glyph-name="uni0445" horiz-adv-x="606" unicode="х" d="M401 0l-98 188l-98 -188h-208l145 255l-134 245h207l88 -175l88 175h207l-134 -245l145 -255h-208z"/>
<glyph glyph-name="uni0446" horiz-adv-x="659" unicode="ц" d="M646 136v-272h-139l-14 136h-447v500h207v-364h106v364h207v-364h80z"/>
<glyph glyph-name="uni0447" horiz-adv-x="605" unicode="ч" d="M559 500v-500h-209v166q-72 -25 -147 -25q-89 0 -130.5 28.5t-41.5 90.5v240h209v-179q0 -30 35 -30q38 0 75 14v195h209z"/>
<glyph glyph-name="uni0448" horiz-adv-x="870" unicode="ш" d="M824 500v-500h-778v500h202v-364h95v364h184v-364h95v364h202z"/>
<glyph glyph-name="uni0449" horiz-adv-x="914" unicode="щ" d="M901 136v-272h-139l-14 136h-702v500h202v-364h94v364h184v-364h94v364h202v-364h79z"/>
<glyph glyph-name="uni044A" horiz-adv-x="683" unicode="ъ" d="M375 128h34q30 0 38.5 9t8.5 40q0 32 -8 41t-39 9h-34v-99zM375 343h34q148 0 203 -36t55 -138q0 -99 -51.5 -137t-169.5 -38q-173 0 -267 6h-6v350h-162v150h364v-157z"/>
<glyph glyph-name="uni044B" horiz-adv-x="842" unicode="ы" d="M248 128h35q31 0 39.5 9t8.5 40q0 32 -8.5 41t-39.5 9h-35v-99zM796 500v-500h-211v500h211zM248 343h35q149 0 204 -36t55 -138q0 -99 -51.5 -137t-170.5 -38q-173 0 -268 6h-6v500h202v-157z"/>
<glyph glyph-name="uni044C" horiz-adv-x="563" unicode="ь" d="M247 128h39q32 0 41.5 9t9.5 40q0 32 -9.5 41t-41.5 9h-39v-99zM247 343h39q150 0 205.5 -36t55.5 -138q0 -99 -52.5 -137t-172.5 -38q-175 0 -270 6h-6v500h201v-157z"/>
<glyph glyph-name="uni044D" horiz-adv-x="564" unicode="э" d="M41 357l-16 126q89 31 216 31q164 0 230.5 -58.5t66.5 -207.5q0 -145 -66.5 -203.5t-230.5 -58.5q-130 0 -220 33l15 129q83 -4 205 -4q47 0 63.5 8.5t20.5 45.5h-251v110h249q-6 31 -23.5 40t-58.5 9h-200z"/>
<glyph glyph-name="uni044E" horiz-adv-x="870" unicode="ю" d="M572 144q35 0 44.5 18.5t9.5 88.5q0 71 -9.5 89.5t-44.5 18.5q-38 0 -47 -18.5t-9 -89.5t9 -89t47 -18zM256 323h71q12 112 67 151.5t181 39.5q77 0 125 -11t81.5 -40.5t47.5 -81t14 -133.5q0 -79 -14 -129t-47.5 -79t-81.5 -40t-125 -11q-129 0 -184.5 41t-64.5 157h-70 v-187h-210v500h210v-177z"/>
<glyph glyph-name="uni044F" horiz-adv-x="587" unicode="я" d="M337 280v90h-54q-26 0 -34.5 -7t-8.5 -27q0 -35 8.5 -45.5t34.5 -10.5h54zM145 211v5q-109 23 -109 133q0 101 47.5 133t195.5 32q191 0 262 -8v-506h-204v157h-44q-21 0 -28.5 -4t-9.5 -19l-29 -134h-214l37 160q15 45 96 51z"/>
<glyph glyph-name="uni0451" d="M246 303h70q34 0 43 6.5t9 31.5q0 23 -11.5 30.5t-41.5 7.5h-5q-36 0 -49 -13.5t-15 -62.5zM375 204h-125q6 -31 24.5 -43t58.5 -12q98 0 203 11l19 -126q-91 -46 -245 -46q-153 0 -219 63.5t-66 194.5q0 147 64 207.5t220 60.5q138 0 199 -44.5t61 -136.5q0 -69 -43 -99 t-151 -30zM439 575h-69q-39 0 -39 39v63q0 39 39 39h69q39 0 39 -39v-63q0 -39 -39 -39zM250 575h-69q-39 0 -39 39v63q0 39 39 39h69q39 0 39 -39v-63q0 -39 -39 -39z" unicode="ё"/>
<glyph glyph-name="uni0452" horiz-adv-x="628" unicode="ђ" d="M277 467v-6q0 -58 -10 -110q91 73 186 73q147 0 147 -140v-284h-211v217q0 16 -8 23t-28 7q-39 0 -76 -12v-235h-211v467h-56v90h56v143h211v-143h166v-90h-166z"/>
<glyph glyph-name="uni0453" horiz-adv-x="493" unicode="ѓ" d="M43 0v376q0 69 35.5 100.5t110.5 31.5q218 0 299 -17l-10 -146h-193q-19 0 -26.5 -6.5t-7.5 -23.5v-315h-208zM462 635l-255 -103l-57 86l233 150z"/>
<glyph glyph-name="uni0454" horiz-adv-x="564" unicode="є" d="M528 148l15 -129q-83 -33 -220 -33q-164 0 -230.5 58.5t-66.5 203.5q0 149 66.5 207.5t230.5 58.5q134 0 216 -31l-16 -126q-66 -1 -200 -1h-8q-35 0 -51.5 -8.5t-22.5 -39.5h250v-110h-252q5 -36 22 -45t62 -9q122 0 205 4z"/>
<glyph glyph-name="uni0455" horiz-adv-x="553" unicode="ѕ" d="M265 174l-110 30q-77 22 -104 61t-27 103q0 72 53 109t179 37q149 0 256 -22l-13 -122h-197q-54 0 -64.5 -1.5t-10.5 -10.5t34 -17q15 -4 25 -7l115 -29q69 -19 100.5 -53.5t31.5 -97.5q0 -94 -54.5 -129.5t-187.5 -35.5q-138 0 -260 21l13 122h178q74 0 91 2t17 13 q0 2 -0.5 3.5t-2 3t-3 2.5t-4.5 2.5t-6.5 2t-9 2.5t-10.5 3t-13 3.5t-16 4.5z"/>
<glyph glyph-name="uni0456" horiz-adv-x="309" unicode="і" d="M259 0h-209v500h209v-500zM110 729h89q61 0 61 -62v-51q0 -62 -61 -62h-89q-61 0 -61 62v51q0 62 61 62z"/>
<glyph glyph-name="uni0457" horiz-adv-x="311" unicode="ї" d="M261 0h-211v500h211v-500zM214 716h69q39 0 39 -39v-63q0 -39 -39 -39h-69q-39 0 -39 39v63q0 39 39 39zM25 716h69q39 0 39 -39v-63q0 -39 -39 -39h-69q-39 0 -39 39v63q0 39 39 39z"/>
<glyph glyph-name="uni0458" horiz-adv-x="309" unicode="ј" d="M259 500v-442q0 -80 -44 -149t-118 -99l-116 92q69 69 69 156v442h209zM107 739h89q61 0 61 -62v-51q0 -62 -61 -62h-89q-61 0 -61 62v51q0 62 61 62z"/>
<glyph glyph-name="uni0459" horiz-adv-x="843" unicode="љ" d="M551 124h27q32 0 40.5 9.5t8.5 40.5q0 32 -8.5 41t-40.5 9h-27v-100zM551 339h27q143 0 196 -36t53 -137q0 -97 -50 -134.5t-165 -37.5q-98 0 -248 6h-6v376h-24q-20 0 -29 -9t-11 -33q-13 -132 -35 -207q-26 -88 -74 -112.5t-98 -24.5q-28 0 -61 6l-13 144 q23 2 35.5 4.5t25.5 13.5t18 30q13 51 28 183q14 129 144 129h287v-161z"/>
<glyph glyph-name="uni045A" horiz-adv-x="833" unicode="њ" d="M542 124h37q24 0 31.5 8.5t7.5 35.5t-7 34.5t-32 7.5h-37v-86zM542 324h37q137 0 188 -33t51 -125q0 -97 -47.5 -134.5t-157.5 -37.5q-172 0 -263 6h-4v201h-109v-201h-191v500h191v-175h109v175h196v-176z"/>
<glyph glyph-name="uni045B" horiz-adv-x="628" unicode="ћ" d="M277 467v-6q0 -58 -10 -110q91 73 186 73q147 0 147 -140v-226q0 -80 -41.5 -149t-111.5 -99l-117 92q59 65 59 156v159q0 16 -8 23t-28 7q-39 0 -76 -12v-235h-211v467h-56v90h56v143h211v-143h166v-90h-166z"/>
<glyph glyph-name="uni045C" horiz-adv-x="594" unicode="ќ" d="M401 263v-6q7 -1 20 -3q74 -11 94.5 -41.5t68.5 -202.5q2 -7 3 -10h-218q-35 130 -45 159t-28 32h-46q5 -23 5 -39v-152h-209v500h209v-109q0 -34 -7 -66h18q38 0 49 18.5t35 122.5q5 22 8 34h212q-47 -159 -51 -171q-16 -40 -44 -51q-15 -6 -74 -15zM266 532l-57 86 l233 150l79 -133z"/>
<glyph glyph-name="uni045D" horiz-adv-x="632" unicode="ѝ" d="M586 0l-187 -2v196q0 38 8 94h-5q-15 -49 -42 -90l-128 -198h-186v500h186v-209q0 -31 -8 -81h5q8 28 39 78l132 212h186v-500zM417 618l-57 -86l-255 103l79 133z"/>
<glyph glyph-name="uni045E" horiz-adv-x="602" unicode="ў" d="M604 500l-159 -486q-30 -100 -77.5 -145t-121.5 -66q-46 -13 -97 -13q-52 0 -109 13l16 133h8q95 0 140 22q24 12 42 42h-35q-51 0 -66 49l-148 451h223l59 -276q4 -27 13 -94h9q8 27 21 94l59 276h223zM351 722h127q3 -14 3 -27q0 -51 -46 -98.5t-135 -47.5t-135 48 t-46 100q0 12 2 25h127q-2 -14 -2 -25q0 -24 11 -38t43 -14q31 0 42 14t11 38q0 11 -2 25z"/>
<glyph glyph-name="uni045F" horiz-adv-x="625" unicode="џ" d="M579 0h-184l-12 -162h-141l-13 162h-183v500h208v-364h119v364h206v-500z"/>
<glyph glyph-name="uni0490" horiz-adv-x="555" unicode="Ґ" d="M551 843v-163l-10 -152h-228q-19 0 -30.5 -10t-11.5 -26v-492h-217v537q0 70 45 113.5t116 43.5q118 0 177 -2l15 151h144z"/>
<glyph glyph-name="uni0491" horiz-adv-x="493" unicode="ґ" d="M488 642v-151l-10 -146h-193q-19 0 -26.5 -6.5t-7.5 -23.5v-315h-208v376q0 69 35.5 100.5t110.5 31.5q98 0 147 -2l15 136h137z"/>
<glyph glyph-name="uni04B0" horiz-adv-x="658" unicode="Ұ" d="M480 302h91v-104h-133v-198h-217v198h-133v104h90l-186 388h223l87 -217q9 -22 21 -97h13q12 73 21 98l86 216h223z"/>
<glyph glyph-name="uni04B1" horiz-adv-x="654" unicode="ұ" d="M478 117h90v-124h-131v-173h-218v173h-131v124h89l-184 383h223l85 -212q5 -13 9 -29t7.5 -38t4.5 -30h12q2 8 5 30t7 38.5t9 29.5l84 211h223z"/>
<glyph glyph-name="uni04B6" horiz-adv-x="739" unicode="Ҷ" d="M727 142v-293h-157l-15 151h-139v261q-99 -45 -186 -45q-101 0 -148 43.5t-47 136.5v294h217v-247v-8q0 -23 11 -32.5t48 -9.5q58 0 105 14v283h217v-548h94z"/>
<glyph glyph-name="uni04B7" horiz-adv-x="646" unicode="ҷ" d="M633 136v-272h-139l-14 136h-135v166q-70 -25 -144 -25q-88 0 -129 29t-41 90v240h209v-179q0 -30 33 -30q36 0 72 13v196h208v-364h80z"/>
<glyph glyph-name="uni04BA" horiz-adv-x="694" unicode="Һ" d="M274 690v-261q101 45 189 45q101 0 148.5 -43.5t47.5 -136.5v-294h-217v247v8q0 23 -11 32.5t-49 9.5q-61 0 -108 -14v-283h-217v690h217z"/>
<glyph glyph-name="uni04C0" horiz-adv-x="329" unicode="Ӏ" d="M272 0h-215v690h215v-690z"/>
</font>
</defs>
</svg>
